<?xml version="1.0" encoding="UTF-8" standalone="no"?>
<!-- Created with Inkscape (http://www.inkscape.org/) -->

<svg
   xmlns:ns0="http://www.iki.fi/pav/software/textext/"
   xmlns:dc="http://purl.org/dc/elements/1.1/"
   xmlns:cc="http://creativecommons.org/ns#"
   xmlns:rdf="http://www.w3.org/1999/02/22-rdf-syntax-ns#"
   xmlns:svg="http://www.w3.org/2000/svg"
   xmlns="http://www.w3.org/2000/svg"
   xmlns:sodipodi="http://sodipodi.sourceforge.net/DTD/sodipodi-0.dtd"
   xmlns:inkscape="http://www.inkscape.org/namespaces/inkscape"
   sodipodi:docname="generalAspectRatio.svg"
   inkscape:version="0.91 r"
   version="1.1"
   id="svg2"
   viewBox="0 0 744.09448819 1052.3622047"
   height="297mm"
   width="210mm">
  <sodipodi:namedview
     inkscape:window-maximized="1"
     inkscape:window-y="-6"
     inkscape:window-x="-4"
     inkscape:window-height="1062"
     inkscape:window-width="1920"
     inkscape:snap-text-baseline="true"
     inkscape:object-nodes="true"
     showgrid="true"
     inkscape:current-layer="svg2"
     inkscape:document-units="px"
     inkscape:cy="449.3859775201"
     inkscape:cx="50.73500877213"
     inkscape:zoom="3.059056457954"
     inkscape:pageshadow="2"
     inkscape:pageopacity="0.0"
     borderopacity="1.0"
     bordercolor="#666666"
     pagecolor="#ffffff"
     id="base">
    <inkscape:grid
       id="grid5889"
       type="xygrid" />
  </sodipodi:namedview>
  <defs
     id="defs4" />
  <metadata
     id="metadata7">
    <rdf:RDF>
      <cc:Work
         rdf:about="">
        <dc:format>image/svg+xml</dc:format>
        <dc:type
           rdf:resource="http://purl.org/dc/dcmitype/StillImage" />
        <dc:title></dc:title>
      </cc:Work>
    </rdf:RDF>
  </metadata>
  <g
     inkscape:label="Layer 1"
     inkscape:groupmode="layer"
     id="layer1" />
  <g
     id="g5897"
     transform="translate(-105,622.3621826172)"
     inkscape:label="Plot"
     inkscape:export-xdpi="257.5848693848"
     inkscape:export-ydpi="257.5848693848">
    <g
       id="g5899"
       inkscape:label="Ticks">
      <path
         id="path5901"
         inkscape:label="none"
         style="fill:none;stroke:#4c4c4c;stroke-width:0.4285714328;stroke-linecap:round;stroke-linejoin:round;stroke-dasharray:none"
         d="m 0,-0.9375 0,1.875"
         inkscape:connector-curvature="0" />
      <g
         transform="matrix(0.443787,0,0,-0.443787,-100.25814,217.710807)"
         ns0:preamble="/home/fernando/.config/inkscape/extensions/textextLib/basicLatexPackages.tex"
         ns0:text=" $0$"
         word-spacing="normal"
         letter-spacing="normal"
         font-size-adjust="none"
         font-stretch="normal"
         font-weight="normal"
         font-variant="normal"
         font-style="normal"
         stroke-miterlimit="10.433"
         xml:space="preserve"
         id="content"
         style="font-style:normal;font-variant:normal;font-weight:normal;font-stretch:normal;letter-spacing:normal;word-spacing:normal;text-anchor:start;fill:none;fill-opacity:1;fill-rule:evenodd;stroke:#000000;stroke-linecap:butt;stroke-linejoin:miter;stroke-miterlimit:10.4329996109;stroke-dasharray:none;stroke-dashoffset:0;stroke-opacity:1"><path
           id="path5904"
           style="fill:#000000;stroke-width:0"
           d="m 228.01,480.41 0,0.15 0,0.15 -0.01,0.15 0,0.15 -0.01,0.15 -0.02,0.14 -0.01,0.15 -0.02,0.15 -0.02,0.14 -0.03,0.15 -0.03,0.14 -0.04,0.15 -0.04,0.14 -0.05,0.14 -0.06,0.14 -0.03,0.07 -0.03,0.07 c -0.46,0.95 -1.27,1.11 -1.69,1.11 -0.6,0 -1.32,-0.26 -1.73,-1.18 -0.32,-0.69 -0.37,-1.46 -0.37,-2.26 0,-0.74 0.04,-1.64 0.45,-2.39 0.43,-0.81 1.15,-1 1.64,-1 l 0,0.21 c -0.39,0 -0.98,0.25 -1.15,1.21 -0.11,0.59 -0.11,1.51 -0.11,2.09 0,0.64 0,1.29 0.08,1.83 0.18,1.18 0.93,1.27 1.18,1.27 0.33,0 0.98,-0.18 1.17,-1.16 0.1,-0.56 0.1,-1.31 0.1,-1.94 0,-0.74 0,-1.42 -0.11,-2.05 -0.15,-0.95 -0.71,-1.25 -1.16,-1.25 l 0,0 0,-0.21 c 0.54,0 1.29,0.21 1.73,1.15 0.32,0.68 0.37,1.46 0.37,2.24 z"
           inkscape:connector-curvature="0" /></g>      <path
         id="path5906"
         inkscape:label="arc"
         sodipodi:type="arc"
         sodipodi:start="4.71238898039"
         sodipodi:ry="30"
         sodipodi:rx="30"
         sodipodi:open="true"
         sodipodi:end="0"
         sodipodi:cy="3.552713678801e-15"
         sodipodi:cx="-3.552713678801e-15"
         style="fill:none;stroke:#b2b2b2;stroke-width:0.3000000119;stroke-linecap:round;stroke-linejoin:round;stroke-dasharray:none"
         d="M 0,-30 A 30,30 0 0 1 30,0" />
      <path
         id="path5908"
         inkscape:label="arc"
         sodipodi:type="arc"
         sodipodi:start="6.25193530718"
         sodipodi:ry="30"
         sodipodi:rx="30"
         sodipodi:open="true"
         sodipodi:end="0.03125"
         sodipodi:cy="0"
         sodipodi:cx="0"
         style="fill:none;stroke:#4c4c4c;stroke-width:0.4285714328;stroke-linecap:round;stroke-linejoin:round;stroke-dasharray:none"
         d="m 29.98535275455,-0.9373474195474 a 30,30 0 0 1 0,1.8746948391072" />
      <g
         transform="matrix(0.443787,0,0,-0.443787,-70.278111,217.757405)"
         ns0:preamble="/home/fernando/.config/inkscape/extensions/textextLib/basicLatexPackages.tex"
         ns0:text=" $1$"
         word-spacing="normal"
         letter-spacing="normal"
         font-size-adjust="none"
         font-stretch="normal"
         font-weight="normal"
         font-variant="normal"
         font-style="normal"
         stroke-miterlimit="10.433"
         xml:space="preserve"
         id="g5910"
         style="font-style:normal;font-variant:normal;font-weight:normal;font-stretch:normal;letter-spacing:normal;word-spacing:normal;text-anchor:start;fill:none;fill-opacity:1;fill-rule:evenodd;stroke:#000000;stroke-linecap:butt;stroke-linejoin:miter;stroke-miterlimit:10.4329996109;stroke-dasharray:none;stroke-dashoffset:0;stroke-opacity:1"><path
           id="path5912"
           style="fill:#000000;stroke-width:0"
           d="m 226.36,483.59 0,0.01 0,0.01 0,0.02 0,0.01 0,0 0,0.01 0,0.01 0,0.01 0,0.01 0,0.01 0,0.01 0,0.01 0,0 -0.01,0.01 0,0.01 0,0 0,0.01 0,0.01 0,0.01 0,0.01 -0.01,0.01 0,0.01 0,0.01 -0.01,0 0,0.01 -0.01,0.01 0,0 -0.01,0.01 -0.01,0 -0.01,0.01 0,0 -0.01,0 0,0 -0.01,0 0,0 -0.01,0 -0.01,0.01 0,0 -0.01,0 -0.01,0 0,0 -0.01,0 -0.01,0 -0.01,0 0,0 -0.01,0 -0.01,0 -0.01,0 -0.01,0 -0.01,0 -0.01,0 -0.01,0 c -0.62,-0.64 -1.49,-0.64 -1.81,-0.64 l 0,-0.3 c 0.2,0 0.78,0 1.3,0.26 l 0,-5.15 c 0,-0.36 -0.03,-0.48 -0.92,-0.48 l -0.32,0 0,-0.31 c 0.35,0.04 1.21,0.04 1.61,0.04 0.4,0 1.26,0 1.61,-0.04 l 0,0.31 -0.32,0 c -0.89,0 -0.92,0.11 -0.92,0.48 z"
           inkscape:connector-curvature="0" /></g>      <path
         id="path5914"
         inkscape:label="arc"
         sodipodi:type="arc"
         sodipodi:start="6.26756030718"
         sodipodi:ry="60"
         sodipodi:rx="60"
         sodipodi:open="true"
         sodipodi:end="0.015625"
         sodipodi:cy="0"
         sodipodi:cx="0"
         style="fill:none;stroke:#4c4c4c;stroke-width:0.4285714328;stroke-linecap:round;stroke-linejoin:round;stroke-dasharray:none"
         d="m 59.99267593026,-0.9374618534682 a 60,60 0 0 1 0,1.8749237069612" />
      <g
         transform="matrix(0.443787,0,0,-0.443787,-40.25814,217.757405)"
         ns0:preamble="/home/fernando/.config/inkscape/extensions/textextLib/basicLatexPackages.tex"
         ns0:text=" $2$"
         word-spacing="normal"
         letter-spacing="normal"
         font-size-adjust="none"
         font-stretch="normal"
         font-weight="normal"
         font-variant="normal"
         font-style="normal"
         stroke-miterlimit="10.433"
         xml:space="preserve"
         id="g5916"
         style="font-style:normal;font-variant:normal;font-weight:normal;font-stretch:normal;letter-spacing:normal;word-spacing:normal;text-anchor:start;fill:none;fill-opacity:1;fill-rule:evenodd;stroke:#000000;stroke-linecap:butt;stroke-linejoin:miter;stroke-miterlimit:10.4329996109;stroke-dasharray:none;stroke-dashoffset:0;stroke-opacity:1"><path
           id="path5918"
           style="fill:#000000;stroke-width:0"
           d="m 224.7,478 1.05,1.02 c 1.55,1.37 2.15,1.91 2.15,2.9 0,1.14 -0.9,1.93 -2.11,1.93 -1.12,0 -1.86,-0.91 -1.86,-1.8 0,-0.55 0.5,-0.55 0.53,-0.55 0.17,0 0.51,0.12 0.51,0.52 0,0.26 -0.18,0.52 -0.52,0.52 -0.08,0 -0.1,0 -0.13,-0.01 0.23,0.64 0.76,1.01 1.34,1.01 0.91,0 1.33,-0.8 1.33,-1.62 0,-0.79 -0.49,-1.58 -1.04,-2.19 l -1.91,-2.13 c -0.11,-0.11 -0.11,-0.13 -0.11,-0.37 l 3.69,0 0.28,1.73 -0.25,0 c -0.05,-0.29 -0.12,-0.73 -0.22,-0.88 C 227.36,478 226.71,478 226.49,478 Z"
           inkscape:connector-curvature="0" /></g>      <path
         id="path5920"
         inkscape:label="none"
         style="fill:none;stroke:#4c4c4c;stroke-width:0.4285714328;stroke-linecap:round;stroke-linejoin:round;stroke-dasharray:none"
         d="m 59.0625,0 1.875,0"
         inkscape:connector-curvature="0" />
      <g
         transform="matrix(0.443787,0,0,-0.443787,-35.578406,213.210807)"
         ns0:preamble="/home/fernando/.config/inkscape/extensions/textextLib/basicLatexPackages.tex"
         ns0:text=" $0.0$"
         word-spacing="normal"
         letter-spacing="normal"
         font-size-adjust="none"
         font-stretch="normal"
         font-weight="normal"
         font-variant="normal"
         font-style="normal"
         stroke-miterlimit="10.433"
         xml:space="preserve"
         id="g5922"
         style="font-style:normal;font-variant:normal;font-weight:normal;font-stretch:normal;letter-spacing:normal;word-spacing:normal;text-anchor:start;fill:none;fill-opacity:1;fill-rule:evenodd;stroke:#000000;stroke-linecap:butt;stroke-linejoin:miter;stroke-miterlimit:10.4329996109;stroke-dasharray:none;stroke-dashoffset:0;stroke-opacity:1"><path
           id="path5924"
           style="fill:#000000;stroke-width:0"
           d="m 228.01,480.41 0,0.15 0,0.15 -0.01,0.15 0,0.15 -0.01,0.15 -0.02,0.14 -0.01,0.15 -0.02,0.15 -0.02,0.14 -0.03,0.15 -0.03,0.14 -0.04,0.15 -0.04,0.14 -0.05,0.14 -0.06,0.14 -0.03,0.07 -0.03,0.07 c -0.46,0.95 -1.27,1.11 -1.69,1.11 -0.6,0 -1.32,-0.26 -1.73,-1.18 -0.32,-0.69 -0.37,-1.46 -0.37,-2.26 0,-0.74 0.04,-1.64 0.45,-2.39 0.43,-0.81 1.15,-1 1.64,-1 l 0,0.21 c -0.39,0 -0.98,0.25 -1.15,1.21 -0.11,0.59 -0.11,1.51 -0.11,2.09 0,0.64 0,1.29 0.08,1.83 0.18,1.18 0.93,1.27 1.18,1.27 0.33,0 0.98,-0.18 1.17,-1.16 0.1,-0.56 0.1,-1.31 0.1,-1.94 0,-0.74 0,-1.42 -0.11,-2.05 -0.15,-0.95 -0.71,-1.25 -1.16,-1.25 l 0,0 0,-0.21 c 0.54,0 1.29,0.21 1.73,1.15 0.32,0.68 0.37,1.46 0.37,2.24 z"
           inkscape:connector-curvature="0" /><path
           id="path5926"
           style="fill:#000000;stroke-width:0"
           d="m 230.32,477.76 0,0.03 0,0.03 0,0.02 -0.01,0.03 0,0.02 -0.01,0.03 -0.01,0.02 -0.01,0.03 -0.01,0.02 -0.01,0.02 -0.01,0.02 -0.02,0.02 -0.01,0.03 -0.02,0.02 -0.01,0.01 -0.02,0.02 -0.02,0.02 -0.02,0.02 -0.02,0.01 -0.02,0.02 -0.02,0.01 -0.02,0.01 -0.03,0.02 -0.02,0.01 -0.02,0.01 -0.03,0 -0.02,0.01 -0.03,0.01 -0.02,0 -0.03,0.01 -0.03,0 -0.02,0 c -0.29,0 -0.53,-0.24 -0.53,-0.53 0,-0.29 0.24,-0.53 0.53,-0.53 0.28,0 0.52,0.24 0.52,0.53 z"
           inkscape:connector-curvature="0" /><path
           id="path5928"
           style="fill:#000000;stroke-width:0"
           d="m 235.76,480.41 0,0.15 0,0.15 -0.01,0.15 -0.01,0.15 0,0.15 -0.02,0.14 -0.01,0.15 -0.02,0.15 -0.02,0.14 -0.03,0.15 -0.03,0.14 -0.04,0.15 -0.04,0.14 -0.05,0.14 -0.06,0.14 -0.03,0.07 -0.03,0.07 c -0.46,0.95 -1.27,1.11 -1.69,1.11 -0.6,0 -1.32,-0.26 -1.73,-1.18 -0.32,-0.69 -0.37,-1.46 -0.37,-2.26 0,-0.74 0.04,-1.64 0.45,-2.39 0.43,-0.81 1.15,-1 1.64,-1 l 0,0.21 c -0.39,0 -0.98,0.25 -1.16,1.21 -0.1,0.59 -0.1,1.51 -0.1,2.09 0,0.64 0,1.29 0.07,1.83 0.19,1.18 0.94,1.27 1.19,1.27 0.33,0 0.98,-0.18 1.17,-1.16 0.1,-0.56 0.1,-1.31 0.1,-1.94 0,-0.74 0,-1.42 -0.11,-2.05 -0.15,-0.95 -0.71,-1.25 -1.16,-1.25 l 0,0 0,-0.21 c 0.54,0 1.29,0.21 1.73,1.15 0.32,0.68 0.37,1.46 0.37,2.24 z"
           inkscape:connector-curvature="0" /></g>      <path
         id="path5930"
         inkscape:label="none"
         style="fill:none;stroke:#b2b2b2;stroke-width:0.3000000119;stroke-linecap:round;stroke-linejoin:round;stroke-dasharray:none"
         d="M 10.6066017178,-10.6066017178 42.4264068712,-42.4264068712"
         inkscape:connector-curvature="0" />
      <path
         id="path5932"
         inkscape:label="none"
         style="fill:none;stroke:#4c4c4c;stroke-width:0.4285714328;stroke-linecap:round;stroke-linejoin:round;stroke-dasharray:none"
         d="m 41.7634942638,-41.7634942638 1.32582521472,-1.32582521472"
         inkscape:connector-curvature="0" />
      <g
         transform="matrix(0.443787,0,0,-0.443787,-54.201533,168.157159)"
         ns0:preamble="/home/fernando/.config/inkscape/extensions/textextLib/basicLatexPackages.tex"
         ns0:text=" $45.0$"
         word-spacing="normal"
         letter-spacing="normal"
         font-size-adjust="none"
         font-stretch="normal"
         font-weight="normal"
         font-variant="normal"
         font-style="normal"
         stroke-miterlimit="10.433"
         xml:space="preserve"
         id="g5934"
         style="font-style:normal;font-variant:normal;font-weight:normal;font-stretch:normal;letter-spacing:normal;word-spacing:normal;text-anchor:start;fill:none;fill-opacity:1;fill-rule:evenodd;stroke:#000000;stroke-linecap:butt;stroke-linejoin:miter;stroke-miterlimit:10.4329996109;stroke-dasharray:none;stroke-dashoffset:0;stroke-opacity:1"><path
           id="path5936"
           style="fill:#000000;stroke-width:0"
           d="m 226.36,478.87 0,-0.86 c 0,-0.36 -0.02,-0.47 -0.76,-0.47 l -0.21,0 0,-0.31 c 0.41,0.04 0.93,0.04 1.35,0.04 0.41,0 0.94,0 1.35,-0.04 l 0,0.31 -0.21,0 c -0.74,0 -0.76,0.11 -0.76,0.47 l 0,0.86 1,0 0,0.31 -1,0 0,4.52 c 0,0.2 0,0.26 -0.16,0.26 -0.09,0 -0.11,0 -0.2,-0.12 l -3.05,-4.66 0.28,0 2.43,3.71 0,-3.71 -2.43,0 -0.28,0 0,-0.31 z"
           inkscape:connector-curvature="0" /><path
           id="path5938"
           style="fill:#000000;stroke-width:0"
           d="m 232.88,479.23 0,0.11 -0.01,0.11 -0.01,0.11 -0.02,0.1 -0.02,0.11 -0.02,0.1 -0.03,0.1 -0.03,0.1 -0.04,0.1 -0.04,0.09 -0.05,0.09 -0.04,0.09 -0.06,0.09 -0.05,0.08 -0.06,0.08 -0.06,0.07 -0.07,0.08 -0.06,0.06 -0.08,0.07 -0.07,0.06 -0.08,0.06 -0.08,0.05 -0.08,0.05 -0.08,0.04 -0.09,0.04 -0.09,0.04 -0.09,0.03 -0.09,0.02 -0.09,0.02 -0.1,0.02 -0.1,0 -0.1,0.01 c -0.48,0 -0.9,-0.16 -1.26,-0.51 l 0,1.94 c 0.2,-0.06 0.52,-0.13 0.84,-0.13 1.23,0 1.92,0.9 1.92,1.03 0,0.06 -0.03,0.11 -0.1,0.11 -0.01,0 -0.03,0 -0.08,-0.03 -0.2,-0.09 -0.68,-0.29 -1.35,-0.29 -0.4,0 -0.86,0.07 -1.32,0.28 -0.08,0.03 -0.1,0.03 -0.12,0.03 -0.1,0 -0.1,-0.08 -0.1,-0.24 l 0,-2.94 c 0,-0.18 0,-0.26 0.14,-0.26 0.07,0 0.09,0.03 0.13,0.09 0.11,0.16 0.47,0.7 1.28,0.7 0.52,0 0.77,-0.46 0.85,-0.64 0.16,-0.37 0.17,-0.75 0.17,-1.25 0,-0.35 0,-0.94 -0.23,-1.36 -0.24,-0.39 -0.61,-0.64 -1.07,-0.64 -0.73,0 -1.29,0.52 -1.46,1.11 0.03,-0.01 0.06,-0.02 0.17,-0.02 0.33,0 0.5,0.25 0.5,0.48 0,0.24 -0.17,0.49 -0.5,0.49 -0.14,0 -0.49,-0.07 -0.49,-0.53 0,-0.85 0.69,-1.81 1.8,-1.81 1.16,0 2.17,0.95 2.17,2.21 z"
           inkscape:connector-curvature="0" /><path
           id="path5940"
           style="fill:#000000;stroke-width:0"
           d="m 235.3,477.76 0,0.03 0,0.03 0,0.02 -0.01,0.03 0,0.02 -0.01,0.03 -0.01,0.02 -0.01,0.03 -0.01,0.02 -0.01,0.02 -0.01,0.02 -0.02,0.02 -0.01,0.03 -0.02,0.02 -0.01,0.01 -0.02,0.02 -0.02,0.02 -0.02,0.02 -0.02,0.01 -0.02,0.02 -0.02,0.01 -0.02,0.01 -0.02,0.02 -0.03,0.01 -0.02,0.01 -0.03,0 -0.02,0.01 -0.03,0.01 -0.02,0 -0.03,0.01 -0.03,0 -0.02,0 c -0.29,0 -0.53,-0.24 -0.53,-0.53 0,-0.29 0.24,-0.53 0.53,-0.53 0.29,0 0.52,0.24 0.52,0.53 z"
           inkscape:connector-curvature="0" /><path
           id="path5942"
           style="fill:#000000;stroke-width:0"
           d="m 240.74,480.41 0,0.15 0,0.15 -0.01,0.15 0,0.15 -0.01,0.15 -0.02,0.14 -0.01,0.15 -0.02,0.15 -0.02,0.14 -0.03,0.15 -0.03,0.14 -0.04,0.15 -0.04,0.14 -0.05,0.14 -0.06,0.14 -0.03,0.07 -0.03,0.07 c -0.46,0.95 -1.27,1.11 -1.69,1.11 -0.6,0 -1.32,-0.26 -1.73,-1.18 -0.32,-0.69 -0.37,-1.46 -0.37,-2.26 0,-0.74 0.04,-1.64 0.45,-2.39 0.43,-0.81 1.15,-1 1.64,-1 l 0,0.21 c -0.39,0 -0.98,0.25 -1.15,1.21 -0.11,0.59 -0.11,1.51 -0.11,2.09 0,0.64 0,1.29 0.08,1.83 0.18,1.18 0.93,1.27 1.18,1.27 0.33,0 0.98,-0.18 1.17,-1.16 0.1,-0.56 0.1,-1.31 0.1,-1.94 0,-0.74 0,-1.42 -0.11,-2.05 -0.15,-0.95 -0.71,-1.25 -1.16,-1.25 l 0,0 0,-0.21 c 0.54,0 1.29,0.21 1.73,1.15 0.32,0.68 0.37,1.46 0.37,2.24 z"
           inkscape:connector-curvature="0" /></g>      <path
         id="path5944"
         inkscape:label="none"
         style="fill:none;stroke:#4c4c4c;stroke-width:0.4285714328;stroke-linecap:round;stroke-linejoin:round;stroke-dasharray:none"
         d="m 0,-59.0625 0,-1.875"
         inkscape:connector-curvature="0" />
      <g
         transform="matrix(0.443787,0,0,-0.443787,-103.089501,149.460807)"
         ns0:preamble="/home/fernando/.config/inkscape/extensions/textextLib/basicLatexPackages.tex"
         ns0:text=" $90.0$"
         word-spacing="normal"
         letter-spacing="normal"
         font-size-adjust="none"
         font-stretch="normal"
         font-weight="normal"
         font-variant="normal"
         font-style="normal"
         stroke-miterlimit="10.433"
         xml:space="preserve"
         id="g5946"
         style="font-style:normal;font-variant:normal;font-weight:normal;font-stretch:normal;letter-spacing:normal;word-spacing:normal;text-anchor:start;fill:none;fill-opacity:1;fill-rule:evenodd;stroke:#000000;stroke-linecap:butt;stroke-linejoin:miter;stroke-miterlimit:10.4329996109;stroke-dasharray:none;stroke-dashoffset:0;stroke-opacity:1"><path
           id="path5948"
           style="fill:#000000;stroke-width:0"
           d="m 227.08,480.39 0,-0.31 c 0,-2.33 -1.03,-2.78 -1.61,-2.78 -0.17,0 -0.71,0.01 -0.97,0.35 0.43,0 0.51,0.29 0.51,0.46 0,0.31 -0.24,0.46 -0.45,0.46 -0.16,0 -0.46,-0.09 -0.46,-0.48 0,-0.67 0.54,-1.07 1.38,-1.07 1.28,0 2.5,1.35 2.5,3.48 0,2.67 -1.14,3.35 -2.03,3.35 -0.55,0 -1.04,-0.18 -1.46,-0.62 -0.41,-0.45 -0.64,-0.87 -0.64,-1.61 0,-1.25 0.88,-2.22 1.99,-2.22 l 0.01,0.23 c -0.16,0 -0.62,0 -0.93,0.63 -0.18,0.36 -0.18,0.86 -0.18,1.35 0,0.53 0,1 0.21,1.37 0.27,0.49 0.65,0.62 1,0.62 0.46,0 0.79,-0.33 0.95,-0.78 0.12,-0.32 0.16,-0.95 0.16,-1.4 0,-0.83 -0.33,-1.79 -1.21,-1.79 l 0,0 -0.01,-0.23 c 0.61,0 1.01,0.42 1.24,0.99 z"
           inkscape:connector-curvature="0" /><path
           id="path5950"
           style="fill:#000000;stroke-width:0"
           d="m 232.99,480.41 0,0.15 0,0.15 -0.01,0.15 0,0.15 -0.01,0.15 -0.01,0.14 -0.02,0.15 -0.02,0.15 -0.02,0.14 -0.03,0.15 -0.03,0.14 -0.04,0.15 -0.04,0.14 -0.05,0.14 -0.06,0.14 -0.03,0.07 -0.03,0.07 c -0.46,0.95 -1.27,1.11 -1.69,1.11 -0.6,0 -1.32,-0.26 -1.73,-1.18 -0.32,-0.69 -0.37,-1.46 -0.37,-2.26 0,-0.74 0.04,-1.64 0.45,-2.39 0.43,-0.81 1.15,-1 1.64,-1 l 0,0.21 c -0.39,0 -0.97,0.25 -1.15,1.21 -0.11,0.59 -0.11,1.51 -0.11,2.09 0,0.64 0,1.29 0.08,1.83 0.19,1.18 0.93,1.27 1.18,1.27 0.33,0 0.99,-0.18 1.18,-1.16 0.09,-0.56 0.09,-1.31 0.09,-1.94 0,-0.74 0,-1.42 -0.11,-2.05 -0.15,-0.95 -0.71,-1.25 -1.16,-1.25 l 0,0 0,-0.21 c 0.54,0 1.29,0.21 1.73,1.15 0.32,0.68 0.37,1.46 0.37,2.24 z"
           inkscape:connector-curvature="0" /><path
           id="path5952"
           style="fill:#000000;stroke-width:0"
           d="m 235.3,477.76 0,0.03 0,0.03 0,0.02 -0.01,0.03 0,0.02 -0.01,0.03 -0.01,0.02 -0.01,0.03 -0.01,0.02 -0.01,0.02 -0.01,0.02 -0.02,0.02 -0.01,0.03 -0.02,0.02 -0.01,0.01 -0.02,0.02 -0.02,0.02 -0.02,0.02 -0.02,0.01 -0.02,0.02 -0.02,0.01 -0.02,0.01 -0.02,0.02 -0.03,0.01 -0.02,0.01 -0.03,0 -0.02,0.01 -0.03,0.01 -0.02,0 -0.03,0.01 -0.03,0 -0.02,0 c -0.29,0 -0.53,-0.24 -0.53,-0.53 0,-0.29 0.24,-0.53 0.53,-0.53 0.29,0 0.52,0.24 0.52,0.53 z"
           inkscape:connector-curvature="0" /><path
           id="path5954"
           style="fill:#000000;stroke-width:0"
           d="m 240.74,480.41 0,0.15 0,0.15 -0.01,0.15 0,0.15 -0.01,0.15 -0.02,0.14 -0.01,0.15 -0.02,0.15 -0.02,0.14 -0.03,0.15 -0.03,0.14 -0.04,0.15 -0.04,0.14 -0.05,0.14 -0.06,0.14 -0.03,0.07 -0.03,0.07 c -0.46,0.95 -1.27,1.11 -1.69,1.11 -0.6,0 -1.32,-0.26 -1.73,-1.18 -0.32,-0.69 -0.37,-1.46 -0.37,-2.26 0,-0.74 0.04,-1.64 0.45,-2.39 0.43,-0.81 1.15,-1 1.64,-1 l 0,0.21 c -0.39,0 -0.98,0.25 -1.15,1.21 -0.11,0.59 -0.11,1.51 -0.11,2.09 0,0.64 0,1.29 0.08,1.83 0.18,1.18 0.93,1.27 1.18,1.27 0.33,0 0.98,-0.18 1.17,-1.16 0.1,-0.56 0.1,-1.31 0.1,-1.94 0,-0.74 0,-1.42 -0.11,-2.05 -0.15,-0.95 -0.71,-1.25 -1.16,-1.25 l 0,0 0,-0.21 c 0.54,0 1.29,0.21 1.73,1.15 0.32,0.68 0.37,1.46 0.37,2.24 z"
           inkscape:connector-curvature="0" /></g>    </g>
    <g
       id="g5956"
       inkscape:label="Axis">
      <path
         id="path5958"
         inkscape:label="none"
         style="fill:none;stroke:#4c4c4c;stroke-width:0.4285714328;stroke-linecap:round;stroke-linejoin:round;stroke-dasharray:none"
         d="M 0,0 60,0"
         inkscape:connector-curvature="0" />
      <path
         id="path5960"
         inkscape:label="none"
         style="fill:none;stroke:#4c4c4c;stroke-width:0.4285714328;stroke-linecap:round;stroke-linejoin:round;stroke-dasharray:none"
         d="M 0,-60 0,0"
         inkscape:connector-curvature="0" />
      <path
         id="path5962"
         inkscape:label="arc"
         sodipodi:type="arc"
         sodipodi:start="4.71238898039"
         sodipodi:ry="60"
         sodipodi:rx="60"
         sodipodi:open="true"
         sodipodi:end="0"
         sodipodi:cy="7.105427357601e-15"
         sodipodi:cx="-3.552713678801e-15"
         style="fill:none;stroke:#4c4c4c;stroke-width:0.4285714328;stroke-linecap:round;stroke-linejoin:round;stroke-dasharray:none"
         d="M 0,-60 A 60,60 0 0 1 60,0" />
      <g
         transform="matrix(0.554734,0,0,-0.554734,-56.803452,270.776786)"
         ns0:preamble="/home/fernando/.config/inkscape/extensions/textextLib/basicLatexPackages.tex"
         ns0:text=" $R$"
         word-spacing="normal"
         letter-spacing="normal"
         font-size-adjust="none"
         font-stretch="normal"
         font-weight="normal"
         font-variant="normal"
         font-style="normal"
         stroke-miterlimit="10.433"
         xml:space="preserve"
         id="g5964"
         style="font-style:normal;font-variant:normal;font-weight:normal;font-stretch:normal;letter-spacing:normal;word-spacing:normal;text-anchor:start;fill:none;fill-opacity:1;fill-rule:evenodd;stroke:#000000;stroke-linecap:butt;stroke-linejoin:miter;stroke-miterlimit:10.4329996109;stroke-dasharray:none;stroke-dashoffset:0;stroke-opacity:1"><path
           id="path5966"
           style="fill:#000000;stroke-width:0"
           d="m 228.6,480.61 0.09,0.02 0.1,0.03 0.09,0.03 0.1,0.03 0.09,0.03 0.1,0.03 0.1,0.04 0.09,0.04 0.1,0.05 0.09,0.04 0.09,0.05 0.09,0.05 0.09,0.05 0.08,0.06 0.09,0.06 0.08,0.06 0.07,0.06 0.08,0.06 0.07,0.07 0.07,0.07 0.06,0.07 0.06,0.07 0.05,0.08 0.05,0.08 0.05,0.08 0.04,0.08 0.03,0.08 0.03,0.09 0.02,0.09 0.02,0.09 0.01,0.09 0,0.09 c 0,0.85 -0.89,1.49 -2.19,1.49 l -2.84,0 c -0.2,0 -0.29,0 -0.29,-0.2 0,-0.11 0.09,-0.11 0.28,-0.11 0.02,0 0.21,0 0.38,-0.02 0.18,-0.02 0.27,-0.03 0.27,-0.16 0,-0.04 -0.01,-0.07 -0.04,-0.19 l -1.34,-5.33 c -0.1,-0.39 -0.11,-0.47 -0.9,-0.47 -0.18,0 -0.27,0 -0.27,-0.2 0,-0.11 0.12,-0.11 0.14,-0.11 0.28,0 0.97,0.04 1.25,0.04 0.28,0 0.99,-0.04 1.27,-0.04 0.08,0 0.2,0 0.2,0.2 0,0.11 -0.09,0.11 -0.28,0.11 -0.37,0 -0.65,0 -0.65,0.18 0,0.06 0.02,0.11 0.03,0.17 l 0.66,2.63 1.18,0 -0.01,0.22 -1.11,0 0.64,2.59 c 0.06,0.24 0.09,0.34 0.28,0.37 0.09,0.01 0.41,0.01 0.61,0.01 0.71,0 1.81,0 1.81,-0.98 0,-0.34 -0.16,-1.03 -0.55,-1.41 -0.26,-0.26 -0.78,-0.58 -1.68,-0.58 l 0.01,-0.22 c 0.91,0 1.09,-0.55 1.09,-0.9 0,-0.15 -0.08,-0.46 -0.14,-0.69 -0.07,-0.27 -0.16,-0.64 -0.16,-0.84 0,-1.07 1.19,-1.07 1.32,-1.07 0.85,0 1.19,1 1.19,1.14 0,0.12 -0.11,0.12 -0.12,0.12 -0.08,0 -0.11,-0.07 -0.12,-0.14 -0.25,-0.74 -0.68,-0.91 -0.91,-0.91 -0.33,0 -0.4,0.22 -0.4,0.61 0,0.31 0.06,0.82 0.1,1.13 0.02,0.14 0.04,0.33 0.04,0.47 0,0.76 -0.67,1.07 -0.93,1.17 z"
           inkscape:connector-curvature="0" /></g>    </g>
  </g>
  <g
     inkscape:label="Plot"
     transform="translate(5,622.3621826172)"
     id="g6050"
     inkscape:export-xdpi="257.5848693848"
     inkscape:export-ydpi="257.5848693848">
    <g
       inkscape:label="Ticks"
       id="g6052">
      <path
         d="m 0,-1.875 0,3.75"
         style="fill:none;stroke:#4c4c4c;stroke-width:0.8571428657;stroke-linecap:round;stroke-linejoin:round;stroke-dasharray:none"
         inkscape:label="none"
         id="path6054"
         inkscape:connector-curvature="0" />
      <g
         id="g6056"
         xml:space="preserve"
         stroke-miterlimit="10.433"
         font-style="normal"
         font-variant="normal"
         font-weight="normal"
         font-stretch="normal"
         font-size-adjust="none"
         letter-spacing="normal"
         word-spacing="normal"
         ns0:text=" $0$"
         ns0:preamble="/home/fernando/.config/inkscape/extensions/textextLib/basicLatexPackages.tex"
         transform="matrix(0.887574,0,0,-0.887574,-200.51628,435.421615)"
         style="font-style:normal;font-variant:normal;font-weight:normal;font-stretch:normal;letter-spacing:normal;word-spacing:normal;text-anchor:start;fill:none;fill-opacity:1;fill-rule:evenodd;stroke:#000000;stroke-linecap:butt;stroke-linejoin:miter;stroke-miterlimit:10.4329996109;stroke-dasharray:none;stroke-dashoffset:0;stroke-opacity:1"><path
           d="m 228.01,480.41 0,0.15 0,0.15 -0.01,0.15 0,0.15 -0.01,0.15 -0.02,0.14 -0.01,0.15 -0.02,0.15 -0.02,0.14 -0.03,0.15 -0.03,0.14 -0.04,0.15 -0.04,0.14 -0.05,0.14 -0.06,0.14 -0.03,0.07 -0.03,0.07 c -0.46,0.95 -1.27,1.11 -1.69,1.11 -0.6,0 -1.32,-0.26 -1.73,-1.18 -0.32,-0.69 -0.37,-1.46 -0.37,-2.26 0,-0.74 0.04,-1.64 0.45,-2.39 0.43,-0.81 1.15,-1 1.64,-1 l 0,0.21 c -0.39,0 -0.98,0.25 -1.15,1.21 -0.11,0.59 -0.11,1.51 -0.11,2.09 0,0.64 0,1.29 0.08,1.83 0.18,1.18 0.93,1.27 1.18,1.27 0.33,0 0.98,-0.18 1.17,-1.16 0.1,-0.56 0.1,-1.31 0.1,-1.94 0,-0.74 0,-1.42 -0.11,-2.05 -0.15,-0.95 -0.71,-1.25 -1.16,-1.25 l 0,0 0,-0.21 c 0.54,0 1.29,0.21 1.73,1.15 0.32,0.68 0.37,1.46 0.37,2.24 z"
           style="fill:#000000;stroke-width:0"
           id="path6058"
           inkscape:connector-curvature="0" /></g>      <path
         d="M 0,-30 A 30,30 0 0 1 30,0"
         style="fill:none;stroke:#b2b2b2;stroke-width:0.6000000238;stroke-linecap:round;stroke-linejoin:round;stroke-dasharray:none"
         sodipodi:cx="-3.552713678801e-15"
         sodipodi:cy="3.552713678801e-15"
         sodipodi:end="0"
         sodipodi:open="true"
         sodipodi:rx="30"
         sodipodi:ry="30"
         sodipodi:start="4.71238898039"
         sodipodi:type="arc"
         inkscape:label="arc"
         id="path6060" />
      <path
         d="m 29.941425321,-1.873779535259 a 30,30 0 0 1 0,3.74755907053"
         style="fill:none;stroke:#4c4c4c;stroke-width:0.8571428657;stroke-linecap:round;stroke-linejoin:round;stroke-dasharray:none"
         sodipodi:cx="0"
         sodipodi:cy="0"
         sodipodi:end="0.0625"
         sodipodi:open="true"
         sodipodi:rx="30"
         sodipodi:ry="30"
         sodipodi:start="6.22068530718"
         sodipodi:type="arc"
         inkscape:label="arc"
         id="path6062" />
      <g
         id="g6064"
         xml:space="preserve"
         stroke-miterlimit="10.433"
         font-style="normal"
         font-variant="normal"
         font-weight="normal"
         font-stretch="normal"
         font-size-adjust="none"
         letter-spacing="normal"
         word-spacing="normal"
         ns0:text=" $1$"
         ns0:preamble="/home/fernando/.config/inkscape/extensions/textextLib/basicLatexPackages.tex"
         transform="matrix(0.887574,0,0,-0.887574,-170.556221,435.51481)"
         style="font-style:normal;font-variant:normal;font-weight:normal;font-stretch:normal;letter-spacing:normal;word-spacing:normal;text-anchor:start;fill:none;fill-opacity:1;fill-rule:evenodd;stroke:#000000;stroke-linecap:butt;stroke-linejoin:miter;stroke-miterlimit:10.4329996109;stroke-dasharray:none;stroke-dashoffset:0;stroke-opacity:1"><path
           d="m 226.36,483.59 0,0.01 0,0.01 0,0.02 0,0.01 0,0 0,0.01 0,0.01 0,0.01 0,0.01 0,0.01 0,0.01 0,0.01 0,0 -0.01,0.01 0,0.01 0,0 0,0.01 0,0.01 0,0.01 0,0.01 -0.01,0.01 0,0.01 0,0.01 -0.01,0 0,0.01 -0.01,0.01 0,0 -0.01,0.01 -0.01,0 -0.01,0.01 0,0 -0.01,0 0,0 -0.01,0 0,0 -0.01,0 -0.01,0.01 0,0 -0.01,0 -0.01,0 0,0 -0.01,0 -0.01,0 -0.01,0 0,0 -0.01,0 -0.01,0 -0.01,0 -0.01,0 -0.01,0 -0.01,0 -0.01,0 c -0.62,-0.64 -1.49,-0.64 -1.81,-0.64 l 0,-0.3 c 0.2,0 0.78,0 1.3,0.26 l 0,-5.15 c 0,-0.36 -0.03,-0.48 -0.92,-0.48 l -0.32,0 0,-0.31 c 0.35,0.04 1.21,0.04 1.61,0.04 0.4,0 1.26,0 1.61,-0.04 l 0,0.31 -0.32,0 c -0.89,0 -0.92,0.11 -0.92,0.48 z"
           style="fill:#000000;stroke-width:0"
           id="path6066"
           inkscape:connector-curvature="0" /></g>      <path
         d="m 59.97070550911,-1.874694839095 a 60,60 0 0 1 0,3.749389678215"
         style="fill:none;stroke:#4c4c4c;stroke-width:0.8571428657;stroke-linecap:round;stroke-linejoin:round;stroke-dasharray:none"
         sodipodi:cx="0"
         sodipodi:cy="0"
         sodipodi:end="0.03125"
         sodipodi:open="true"
         sodipodi:rx="60"
         sodipodi:ry="60"
         sodipodi:start="6.25193530718"
         sodipodi:type="arc"
         inkscape:label="arc"
         id="path6068" />
      <g
         id="g6070"
         xml:space="preserve"
         stroke-miterlimit="10.433"
         font-style="normal"
         font-variant="normal"
         font-weight="normal"
         font-stretch="normal"
         font-size-adjust="none"
         letter-spacing="normal"
         word-spacing="normal"
         ns0:text=" $2$"
         ns0:preamble="/home/fernando/.config/inkscape/extensions/textextLib/basicLatexPackages.tex"
         transform="matrix(0.887574,0,0,-0.887574,-140.51628,435.51481)"
         style="font-style:normal;font-variant:normal;font-weight:normal;font-stretch:normal;letter-spacing:normal;word-spacing:normal;text-anchor:start;fill:none;fill-opacity:1;fill-rule:evenodd;stroke:#000000;stroke-linecap:butt;stroke-linejoin:miter;stroke-miterlimit:10.4329996109;stroke-dasharray:none;stroke-dashoffset:0;stroke-opacity:1"><path
           d="m 224.7,478 1.05,1.02 c 1.55,1.37 2.15,1.91 2.15,2.9 0,1.14 -0.9,1.93 -2.11,1.93 -1.12,0 -1.86,-0.91 -1.86,-1.8 0,-0.55 0.5,-0.55 0.53,-0.55 0.17,0 0.51,0.12 0.51,0.52 0,0.26 -0.18,0.52 -0.52,0.52 -0.08,0 -0.1,0 -0.13,-0.01 0.23,0.64 0.76,1.01 1.34,1.01 0.91,0 1.33,-0.8 1.33,-1.62 0,-0.79 -0.49,-1.58 -1.04,-2.19 l -1.91,-2.13 c -0.11,-0.11 -0.11,-0.13 -0.11,-0.37 l 3.69,0 0.28,1.73 -0.25,0 c -0.05,-0.29 -0.12,-0.73 -0.22,-0.88 C 227.36,478 226.71,478 226.49,478 Z"
           style="fill:#000000;stroke-width:0"
           id="path6072"
           inkscape:connector-curvature="0" /></g>      <path
         d="m 58.125,0 3.75,0"
         style="fill:none;stroke:#4c4c4c;stroke-width:0.8571428657;stroke-linecap:round;stroke-linejoin:round;stroke-dasharray:none"
         inkscape:label="none"
         id="path6074"
         inkscape:connector-curvature="0" />
      <g
         id="g6076"
         xml:space="preserve"
         stroke-miterlimit="10.433"
         font-style="normal"
         font-variant="normal"
         font-weight="normal"
         font-stretch="normal"
         font-size-adjust="none"
         letter-spacing="normal"
         word-spacing="normal"
         ns0:text=" $0.0$"
         ns0:preamble="/home/fernando/.config/inkscape/extensions/textextLib/basicLatexPackages.tex"
         transform="matrix(0.887574,0,0,-0.887574,-131.156813,426.421615)"
         style="font-style:normal;font-variant:normal;font-weight:normal;font-stretch:normal;letter-spacing:normal;word-spacing:normal;text-anchor:start;fill:none;fill-opacity:1;fill-rule:evenodd;stroke:#000000;stroke-linecap:butt;stroke-linejoin:miter;stroke-miterlimit:10.4329996109;stroke-dasharray:none;stroke-dashoffset:0;stroke-opacity:1"><path
           d="m 228.01,480.41 0,0.15 0,0.15 -0.01,0.15 0,0.15 -0.01,0.15 -0.02,0.14 -0.01,0.15 -0.02,0.15 -0.02,0.14 -0.03,0.15 -0.03,0.14 -0.04,0.15 -0.04,0.14 -0.05,0.14 -0.06,0.14 -0.03,0.07 -0.03,0.07 c -0.46,0.95 -1.27,1.11 -1.69,1.11 -0.6,0 -1.32,-0.26 -1.73,-1.18 -0.32,-0.69 -0.37,-1.46 -0.37,-2.26 0,-0.74 0.04,-1.64 0.45,-2.39 0.43,-0.81 1.15,-1 1.64,-1 l 0,0.21 c -0.39,0 -0.98,0.25 -1.15,1.21 -0.11,0.59 -0.11,1.51 -0.11,2.09 0,0.64 0,1.29 0.08,1.83 0.18,1.18 0.93,1.27 1.18,1.27 0.33,0 0.98,-0.18 1.17,-1.16 0.1,-0.56 0.1,-1.31 0.1,-1.94 0,-0.74 0,-1.42 -0.11,-2.05 -0.15,-0.95 -0.71,-1.25 -1.16,-1.25 l 0,0 0,-0.21 c 0.54,0 1.29,0.21 1.73,1.15 0.32,0.68 0.37,1.46 0.37,2.24 z"
           style="fill:#000000;stroke-width:0"
           id="path6078"
           inkscape:connector-curvature="0" /><path
           d="m 230.32,477.76 0,0.03 0,0.03 0,0.02 -0.01,0.03 0,0.02 -0.01,0.03 -0.01,0.02 -0.01,0.03 -0.01,0.02 -0.01,0.02 -0.01,0.02 -0.02,0.02 -0.01,0.03 -0.02,0.02 -0.01,0.01 -0.02,0.02 -0.02,0.02 -0.02,0.02 -0.02,0.01 -0.02,0.02 -0.02,0.01 -0.02,0.01 -0.03,0.02 -0.02,0.01 -0.02,0.01 -0.03,0 -0.02,0.01 -0.03,0.01 -0.02,0 -0.03,0.01 -0.03,0 -0.02,0 c -0.29,0 -0.53,-0.24 -0.53,-0.53 0,-0.29 0.24,-0.53 0.53,-0.53 0.28,0 0.52,0.24 0.52,0.53 z"
           style="fill:#000000;stroke-width:0"
           id="path6080"
           inkscape:connector-curvature="0" /><path
           d="m 235.76,480.41 0,0.15 0,0.15 -0.01,0.15 -0.01,0.15 0,0.15 -0.02,0.14 -0.01,0.15 -0.02,0.15 -0.02,0.14 -0.03,0.15 -0.03,0.14 -0.04,0.15 -0.04,0.14 -0.05,0.14 -0.06,0.14 -0.03,0.07 -0.03,0.07 c -0.46,0.95 -1.27,1.11 -1.69,1.11 -0.6,0 -1.32,-0.26 -1.73,-1.18 -0.32,-0.69 -0.37,-1.46 -0.37,-2.26 0,-0.74 0.04,-1.64 0.45,-2.39 0.43,-0.81 1.15,-1 1.64,-1 l 0,0.21 c -0.39,0 -0.98,0.25 -1.16,1.21 -0.1,0.59 -0.1,1.51 -0.1,2.09 0,0.64 0,1.29 0.07,1.83 0.19,1.18 0.94,1.27 1.19,1.27 0.33,0 0.98,-0.18 1.17,-1.16 0.1,-0.56 0.1,-1.31 0.1,-1.94 0,-0.74 0,-1.42 -0.11,-2.05 -0.15,-0.95 -0.71,-1.25 -1.16,-1.25 l 0,0 0,-0.21 c 0.54,0 1.29,0.21 1.73,1.15 0.32,0.68 0.37,1.46 0.37,2.24 z"
           style="fill:#000000;stroke-width:0"
           id="path6082"
           inkscape:connector-curvature="0" /></g>      <path
         d="M 10.6066017178,-10.6066017178 42.4264068712,-42.4264068712"
         style="fill:none;stroke:#b2b2b2;stroke-width:0.6000000238;stroke-linecap:round;stroke-linejoin:round;stroke-dasharray:none"
         inkscape:label="none"
         id="path6084"
         inkscape:connector-curvature="0" />
      <path
         d="m 41.1005816565,-41.1005816565 2.65165042945,-2.65165042945"
         style="fill:none;stroke:#4c4c4c;stroke-width:0.8571428657;stroke-linecap:round;stroke-linejoin:round;stroke-dasharray:none"
         inkscape:label="none"
         id="path6086"
         inkscape:connector-curvature="0" />
      <g
         id="g6088"
         xml:space="preserve"
         stroke-miterlimit="10.433"
         font-style="normal"
         font-variant="normal"
         font-weight="normal"
         font-stretch="normal"
         font-size-adjust="none"
         letter-spacing="normal"
         word-spacing="normal"
         ns0:text=" $45.0$"
         ns0:preamble="/home/fernando/.config/inkscape/extensions/textextLib/basicLatexPackages.tex"
         transform="matrix(0.887574,0,0,-0.887574,-150.829472,378.740723)"
         style="font-style:normal;font-variant:normal;font-weight:normal;font-stretch:normal;letter-spacing:normal;word-spacing:normal;text-anchor:start;fill:none;fill-opacity:1;fill-rule:evenodd;stroke:#000000;stroke-linecap:butt;stroke-linejoin:miter;stroke-miterlimit:10.4329996109;stroke-dasharray:none;stroke-dashoffset:0;stroke-opacity:1"><path
           d="m 226.36,478.87 0,-0.86 c 0,-0.36 -0.02,-0.47 -0.76,-0.47 l -0.21,0 0,-0.31 c 0.41,0.04 0.93,0.04 1.35,0.04 0.41,0 0.94,0 1.35,-0.04 l 0,0.31 -0.21,0 c -0.74,0 -0.76,0.11 -0.76,0.47 l 0,0.86 1,0 0,0.31 -1,0 0,4.52 c 0,0.2 0,0.26 -0.16,0.26 -0.09,0 -0.11,0 -0.2,-0.12 l -3.05,-4.66 0.28,0 2.43,3.71 0,-3.71 -2.43,0 -0.28,0 0,-0.31 z"
           style="fill:#000000;stroke-width:0"
           id="path6090"
           inkscape:connector-curvature="0" /><path
           d="m 232.88,479.23 0,0.11 -0.01,0.11 -0.01,0.11 -0.02,0.1 -0.02,0.11 -0.02,0.1 -0.03,0.1 -0.03,0.1 -0.04,0.1 -0.04,0.09 -0.05,0.09 -0.04,0.09 -0.06,0.09 -0.05,0.08 -0.06,0.08 -0.06,0.07 -0.07,0.08 -0.06,0.06 -0.08,0.07 -0.07,0.06 -0.08,0.06 -0.08,0.05 -0.08,0.05 -0.08,0.04 -0.09,0.04 -0.09,0.04 -0.09,0.03 -0.09,0.02 -0.09,0.02 -0.1,0.02 -0.1,0 -0.1,0.01 c -0.48,0 -0.9,-0.16 -1.26,-0.51 l 0,1.94 c 0.2,-0.06 0.52,-0.13 0.84,-0.13 1.23,0 1.92,0.9 1.92,1.03 0,0.06 -0.03,0.11 -0.1,0.11 -0.01,0 -0.03,0 -0.08,-0.03 -0.2,-0.09 -0.68,-0.29 -1.35,-0.29 -0.4,0 -0.86,0.07 -1.32,0.28 -0.08,0.03 -0.1,0.03 -0.12,0.03 -0.1,0 -0.1,-0.08 -0.1,-0.24 l 0,-2.94 c 0,-0.18 0,-0.26 0.14,-0.26 0.07,0 0.09,0.03 0.13,0.09 0.11,0.16 0.47,0.7 1.28,0.7 0.52,0 0.77,-0.46 0.85,-0.64 0.16,-0.37 0.17,-0.75 0.17,-1.25 0,-0.35 0,-0.94 -0.23,-1.36 -0.24,-0.39 -0.61,-0.64 -1.07,-0.64 -0.73,0 -1.29,0.52 -1.46,1.11 0.03,-0.01 0.06,-0.02 0.17,-0.02 0.33,0 0.5,0.25 0.5,0.48 0,0.24 -0.17,0.49 -0.5,0.49 -0.14,0 -0.49,-0.07 -0.49,-0.53 0,-0.85 0.69,-1.81 1.8,-1.81 1.16,0 2.17,0.95 2.17,2.21 z"
           style="fill:#000000;stroke-width:0"
           id="path6092"
           inkscape:connector-curvature="0" /><path
           d="m 235.3,477.76 0,0.03 0,0.03 0,0.02 -0.01,0.03 0,0.02 -0.01,0.03 -0.01,0.02 -0.01,0.03 -0.01,0.02 -0.01,0.02 -0.01,0.02 -0.02,0.02 -0.01,0.03 -0.02,0.02 -0.01,0.01 -0.02,0.02 -0.02,0.02 -0.02,0.02 -0.02,0.01 -0.02,0.02 -0.02,0.01 -0.02,0.01 -0.02,0.02 -0.03,0.01 -0.02,0.01 -0.03,0 -0.02,0.01 -0.03,0.01 -0.02,0 -0.03,0.01 -0.03,0 -0.02,0 c -0.29,0 -0.53,-0.24 -0.53,-0.53 0,-0.29 0.24,-0.53 0.53,-0.53 0.29,0 0.52,0.24 0.52,0.53 z"
           style="fill:#000000;stroke-width:0"
           id="path6094"
           inkscape:connector-curvature="0" /><path
           d="m 240.74,480.41 0,0.15 0,0.15 -0.01,0.15 0,0.15 -0.01,0.15 -0.02,0.14 -0.01,0.15 -0.02,0.15 -0.02,0.14 -0.03,0.15 -0.03,0.14 -0.04,0.15 -0.04,0.14 -0.05,0.14 -0.06,0.14 -0.03,0.07 -0.03,0.07 c -0.46,0.95 -1.27,1.11 -1.69,1.11 -0.6,0 -1.32,-0.26 -1.73,-1.18 -0.32,-0.69 -0.37,-1.46 -0.37,-2.26 0,-0.74 0.04,-1.64 0.45,-2.39 0.43,-0.81 1.15,-1 1.64,-1 l 0,0.21 c -0.39,0 -0.98,0.25 -1.15,1.21 -0.11,0.59 -0.11,1.51 -0.11,2.09 0,0.64 0,1.29 0.08,1.83 0.18,1.18 0.93,1.27 1.18,1.27 0.33,0 0.98,-0.18 1.17,-1.16 0.1,-0.56 0.1,-1.31 0.1,-1.94 0,-0.74 0,-1.42 -0.11,-2.05 -0.15,-0.95 -0.71,-1.25 -1.16,-1.25 l 0,0 0,-0.21 c 0.54,0 1.29,0.21 1.73,1.15 0.32,0.68 0.37,1.46 0.37,2.24 z"
           style="fill:#000000;stroke-width:0"
           id="path6096"
           inkscape:connector-curvature="0" /></g>      <path
         d="m 0,-58.125 0,-3.75"
         style="fill:none;stroke:#4c4c4c;stroke-width:0.8571428657;stroke-linecap:round;stroke-linejoin:round;stroke-dasharray:none"
         inkscape:label="none"
         id="path6098"
         inkscape:connector-curvature="0" />
      <g
         id="g6100"
         xml:space="preserve"
         stroke-miterlimit="10.433"
         font-style="normal"
         font-variant="normal"
         font-weight="normal"
         font-stretch="normal"
         font-size-adjust="none"
         letter-spacing="normal"
         word-spacing="normal"
         ns0:text=" $90.0$"
         ns0:preamble="/home/fernando/.config/inkscape/extensions/textextLib/basicLatexPackages.tex"
         transform="matrix(0.887574,0,0,-0.887574,-206.179002,358.921615)"
         style="font-style:normal;font-variant:normal;font-weight:normal;font-stretch:normal;letter-spacing:normal;word-spacing:normal;text-anchor:start;fill:none;fill-opacity:1;fill-rule:evenodd;stroke:#000000;stroke-linecap:butt;stroke-linejoin:miter;stroke-miterlimit:10.4329996109;stroke-dasharray:none;stroke-dashoffset:0;stroke-opacity:1"><path
           d="m 227.08,480.39 0,-0.31 c 0,-2.33 -1.03,-2.78 -1.61,-2.78 -0.17,0 -0.71,0.01 -0.97,0.35 0.43,0 0.51,0.29 0.51,0.46 0,0.31 -0.24,0.46 -0.45,0.46 -0.16,0 -0.46,-0.09 -0.46,-0.48 0,-0.67 0.54,-1.07 1.38,-1.07 1.28,0 2.5,1.35 2.5,3.48 0,2.67 -1.14,3.35 -2.03,3.35 -0.55,0 -1.04,-0.18 -1.46,-0.62 -0.41,-0.45 -0.64,-0.87 -0.64,-1.61 0,-1.25 0.88,-2.22 1.99,-2.22 l 0.01,0.23 c -0.16,0 -0.62,0 -0.93,0.63 -0.18,0.36 -0.18,0.86 -0.18,1.35 0,0.53 0,1 0.21,1.37 0.27,0.49 0.65,0.62 1,0.62 0.46,0 0.79,-0.33 0.95,-0.78 0.12,-0.32 0.16,-0.95 0.16,-1.4 0,-0.83 -0.33,-1.79 -1.21,-1.79 l 0,0 -0.01,-0.23 c 0.61,0 1.01,0.42 1.24,0.99 z"
           style="fill:#000000;stroke-width:0"
           id="path6102"
           inkscape:connector-curvature="0" /><path
           d="m 232.99,480.41 0,0.15 0,0.15 -0.01,0.15 0,0.15 -0.01,0.15 -0.01,0.14 -0.02,0.15 -0.02,0.15 -0.02,0.14 -0.03,0.15 -0.03,0.14 -0.04,0.15 -0.04,0.14 -0.05,0.14 -0.06,0.14 -0.03,0.07 -0.03,0.07 c -0.46,0.95 -1.27,1.11 -1.69,1.11 -0.6,0 -1.32,-0.26 -1.73,-1.18 -0.32,-0.69 -0.37,-1.46 -0.37,-2.26 0,-0.74 0.04,-1.64 0.45,-2.39 0.43,-0.81 1.15,-1 1.64,-1 l 0,0.21 c -0.39,0 -0.97,0.25 -1.15,1.21 -0.11,0.59 -0.11,1.51 -0.11,2.09 0,0.64 0,1.29 0.08,1.83 0.19,1.18 0.93,1.27 1.18,1.27 0.33,0 0.99,-0.18 1.18,-1.16 0.09,-0.56 0.09,-1.31 0.09,-1.94 0,-0.74 0,-1.42 -0.11,-2.05 -0.15,-0.95 -0.71,-1.25 -1.16,-1.25 l 0,0 0,-0.21 c 0.54,0 1.29,0.21 1.73,1.15 0.32,0.68 0.37,1.46 0.37,2.24 z"
           style="fill:#000000;stroke-width:0"
           id="path6104"
           inkscape:connector-curvature="0" /><path
           d="m 235.3,477.76 0,0.03 0,0.03 0,0.02 -0.01,0.03 0,0.02 -0.01,0.03 -0.01,0.02 -0.01,0.03 -0.01,0.02 -0.01,0.02 -0.01,0.02 -0.02,0.02 -0.01,0.03 -0.02,0.02 -0.01,0.01 -0.02,0.02 -0.02,0.02 -0.02,0.02 -0.02,0.01 -0.02,0.02 -0.02,0.01 -0.02,0.01 -0.02,0.02 -0.03,0.01 -0.02,0.01 -0.03,0 -0.02,0.01 -0.03,0.01 -0.02,0 -0.03,0.01 -0.03,0 -0.02,0 c -0.29,0 -0.53,-0.24 -0.53,-0.53 0,-0.29 0.24,-0.53 0.53,-0.53 0.29,0 0.52,0.24 0.52,0.53 z"
           style="fill:#000000;stroke-width:0"
           id="path6106"
           inkscape:connector-curvature="0" /><path
           d="m 240.74,480.41 0,0.15 0,0.15 -0.01,0.15 0,0.15 -0.01,0.15 -0.02,0.14 -0.01,0.15 -0.02,0.15 -0.02,0.14 -0.03,0.15 -0.03,0.14 -0.04,0.15 -0.04,0.14 -0.05,0.14 -0.06,0.14 -0.03,0.07 -0.03,0.07 c -0.46,0.95 -1.27,1.11 -1.69,1.11 -0.6,0 -1.32,-0.26 -1.73,-1.18 -0.32,-0.69 -0.37,-1.46 -0.37,-2.26 0,-0.74 0.04,-1.64 0.45,-2.39 0.43,-0.81 1.15,-1 1.64,-1 l 0,0.21 c -0.39,0 -0.98,0.25 -1.15,1.21 -0.11,0.59 -0.11,1.51 -0.11,2.09 0,0.64 0,1.29 0.08,1.83 0.18,1.18 0.93,1.27 1.18,1.27 0.33,0 0.98,-0.18 1.17,-1.16 0.1,-0.56 0.1,-1.31 0.1,-1.94 0,-0.74 0,-1.42 -0.11,-2.05 -0.15,-0.95 -0.71,-1.25 -1.16,-1.25 l 0,0 0,-0.21 c 0.54,0 1.29,0.21 1.73,1.15 0.32,0.68 0.37,1.46 0.37,2.24 z"
           style="fill:#000000;stroke-width:0"
           id="path6108"
           inkscape:connector-curvature="0" /></g>    </g>
    <g
       inkscape:label="Axis"
       id="g6110">
      <path
         d="M 0,0 60,0"
         style="fill:none;stroke:#4c4c4c;stroke-width:0.8571428657;stroke-linecap:round;stroke-linejoin:round;stroke-dasharray:none"
         inkscape:label="none"
         id="path6112"
         inkscape:connector-curvature="0" />
      <path
         d="M 0,-60 0,0"
         style="fill:none;stroke:#4c4c4c;stroke-width:0.8571428657;stroke-linecap:round;stroke-linejoin:round;stroke-dasharray:none"
         inkscape:label="none"
         id="path6114"
         inkscape:connector-curvature="0" />
      <path
         d="M 0,-60 A 60,60 0 0 1 60,0"
         style="fill:none;stroke:#4c4c4c;stroke-width:0.8571428657;stroke-linecap:round;stroke-linejoin:round;stroke-dasharray:none"
         sodipodi:cx="-3.552713678801e-15"
         sodipodi:cy="7.105427357601e-15"
         sodipodi:end="0"
         sodipodi:open="true"
         sodipodi:rx="60"
         sodipodi:ry="60"
         sodipodi:start="4.71238898039"
         sodipodi:type="arc"
         inkscape:label="arc"
         id="path6116" />
      <g
         id="g6118"
         xml:space="preserve"
         stroke-miterlimit="10.433"
         font-style="normal"
         font-variant="normal"
         font-weight="normal"
         font-stretch="normal"
         font-size-adjust="none"
         letter-spacing="normal"
         word-spacing="normal"
         ns0:text=" $R$"
         ns0:preamble="/home/fernando/.config/inkscape/extensions/textextLib/basicLatexPackages.tex"
         transform="matrix(1.109467,0,0,-1.109467,-173.928268,542.471688)"
         style="font-style:normal;font-variant:normal;font-weight:normal;font-stretch:normal;letter-spacing:normal;word-spacing:normal;text-anchor:start;fill:none;fill-opacity:1;fill-rule:evenodd;stroke:#000000;stroke-linecap:butt;stroke-linejoin:miter;stroke-miterlimit:10.4329996109;stroke-dasharray:none;stroke-dashoffset:0;stroke-opacity:1"><path
           d="m 228.6,480.61 0.09,0.02 0.1,0.03 0.09,0.03 0.1,0.03 0.09,0.03 0.1,0.03 0.1,0.04 0.09,0.04 0.1,0.05 0.09,0.04 0.09,0.05 0.09,0.05 0.09,0.05 0.08,0.06 0.09,0.06 0.08,0.06 0.07,0.06 0.08,0.06 0.07,0.07 0.07,0.07 0.06,0.07 0.06,0.07 0.05,0.08 0.05,0.08 0.05,0.08 0.04,0.08 0.03,0.08 0.03,0.09 0.02,0.09 0.02,0.09 0.01,0.09 0,0.09 c 0,0.85 -0.89,1.49 -2.19,1.49 l -2.84,0 c -0.2,0 -0.29,0 -0.29,-0.2 0,-0.11 0.09,-0.11 0.28,-0.11 0.02,0 0.21,0 0.38,-0.02 0.18,-0.02 0.27,-0.03 0.27,-0.16 0,-0.04 -0.01,-0.07 -0.04,-0.19 l -1.34,-5.33 c -0.1,-0.39 -0.11,-0.47 -0.9,-0.47 -0.18,0 -0.27,0 -0.27,-0.2 0,-0.11 0.12,-0.11 0.14,-0.11 0.28,0 0.97,0.04 1.25,0.04 0.28,0 0.99,-0.04 1.27,-0.04 0.08,0 0.2,0 0.2,0.2 0,0.11 -0.09,0.11 -0.28,0.11 -0.37,0 -0.65,0 -0.65,0.18 0,0.06 0.02,0.11 0.03,0.17 l 0.66,2.63 1.18,0 -0.01,0.22 -1.11,0 0.64,2.59 c 0.06,0.24 0.09,0.34 0.28,0.37 0.09,0.01 0.41,0.01 0.61,0.01 0.71,0 1.81,0 1.81,-0.98 0,-0.34 -0.16,-1.03 -0.55,-1.41 -0.26,-0.26 -0.78,-0.58 -1.68,-0.58 l 0.01,-0.22 c 0.91,0 1.09,-0.55 1.09,-0.9 0,-0.15 -0.08,-0.46 -0.14,-0.69 -0.07,-0.27 -0.16,-0.64 -0.16,-0.84 0,-1.07 1.19,-1.07 1.32,-1.07 0.85,0 1.19,1 1.19,1.14 0,0.12 -0.11,0.12 -0.12,0.12 -0.08,0 -0.11,-0.07 -0.12,-0.14 -0.25,-0.74 -0.68,-0.91 -0.91,-0.91 -0.33,0 -0.4,0.22 -0.4,0.61 0,0.31 0.06,0.82 0.1,1.13 0.02,0.14 0.04,0.33 0.04,0.47 0,0.76 -0.67,1.07 -0.93,1.17 z"
           style="fill:#000000;stroke-width:0"
           id="path6120"
           inkscape:connector-curvature="0" /></g>    </g>
  </g>
  <g
     id="g6276"
     transform="translate(125,622.3621826172)"
     inkscape:label="Plot"
     inkscape:export-xdpi="257.5848693848"
     inkscape:export-ydpi="257.5848693848">
    <g
       id="g6278"
       inkscape:label="Ticks">
      <path
         id="path6280"
         inkscape:label="none"
         style="fill:none;stroke:#4c4c4c;stroke-width:1.2857142687;stroke-linecap:round;stroke-linejoin:round;stroke-dasharray:none"
         d="m 0,-2.8125 0,5.625"
         inkscape:connector-curvature="0" />
      <g
         transform="matrix(1.331361,0,0,-1.331361,-300.77442,653.132422)"
         ns0:preamble="/home/fernando/.config/inkscape/extensions/textextLib/basicLatexPackages.tex"
         ns0:text=" $0$"
         word-spacing="normal"
         letter-spacing="normal"
         font-size-adjust="none"
         font-stretch="normal"
         font-weight="normal"
         font-variant="normal"
         font-style="normal"
         stroke-miterlimit="10.433"
         xml:space="preserve"
         id="g6282"
         style="font-style:normal;font-variant:normal;font-weight:normal;font-stretch:normal;letter-spacing:normal;word-spacing:normal;text-anchor:start;fill:none;fill-opacity:1;fill-rule:evenodd;stroke:#000000;stroke-linecap:butt;stroke-linejoin:miter;stroke-miterlimit:10.4329996109;stroke-dasharray:none;stroke-dashoffset:0;stroke-opacity:1"><path
           id="path6284"
           style="fill:#000000;stroke-width:0"
           d="m 228.01,480.41 0,0.15 0,0.15 -0.01,0.15 0,0.15 -0.01,0.15 -0.02,0.14 -0.01,0.15 -0.02,0.15 -0.02,0.14 -0.03,0.15 -0.03,0.14 -0.04,0.15 -0.04,0.14 -0.05,0.14 -0.06,0.14 -0.03,0.07 -0.03,0.07 c -0.46,0.95 -1.27,1.11 -1.69,1.11 -0.6,0 -1.32,-0.26 -1.73,-1.18 -0.32,-0.69 -0.37,-1.46 -0.37,-2.26 0,-0.74 0.04,-1.64 0.45,-2.39 0.43,-0.81 1.15,-1 1.64,-1 l 0,0.21 c -0.39,0 -0.98,0.25 -1.15,1.21 -0.11,0.59 -0.11,1.51 -0.11,2.09 0,0.64 0,1.29 0.08,1.83 0.18,1.18 0.93,1.27 1.18,1.27 0.33,0 0.98,-0.18 1.17,-1.16 0.1,-0.56 0.1,-1.31 0.1,-1.94 0,-0.74 0,-1.42 -0.11,-2.05 -0.15,-0.95 -0.71,-1.25 -1.16,-1.25 l 0,0 0,-0.21 c 0.54,0 1.29,0.21 1.73,1.15 0.32,0.68 0.37,1.46 0.37,2.24 z"
           inkscape:connector-curvature="0" /></g>      <path
         id="path6286"
         inkscape:label="arc"
         sodipodi:type="arc"
         sodipodi:start="4.71238898039"
         sodipodi:ry="30"
         sodipodi:rx="30"
         sodipodi:open="true"
         sodipodi:end="0"
         sodipodi:cy="3.552713678801e-15"
         sodipodi:cx="-3.552713678801e-15"
         style="fill:none;stroke:#b2b2b2;stroke-width:0.8999999762;stroke-linecap:round;stroke-linejoin:round;stroke-dasharray:none"
         d="M 0,-30 A 30,30 0 0 1 30,0" />
      <path
         id="path6288"
         inkscape:label="arc"
         sodipodi:type="arc"
         sodipodi:start="6.18943530718"
         sodipodi:ry="30"
         sodipodi:rx="30"
         sodipodi:open="true"
         sodipodi:end="0.09375"
         sodipodi:cy="0"
         sodipodi:cx="-3.552713678801e-15"
         style="fill:none;stroke:#4c4c4c;stroke-width:1.2857142687;stroke-linecap:round;stroke-linejoin:round;stroke-dasharray:none"
         d="m 29.86826059374,-2.808381937053 a 30,30 0 0 1 0,5.616763874118" />
      <g
         transform="matrix(1.331361,0,0,-1.331361,-270.834332,653.272215)"
         ns0:preamble="/home/fernando/.config/inkscape/extensions/textextLib/basicLatexPackages.tex"
         ns0:text=" $1$"
         word-spacing="normal"
         letter-spacing="normal"
         font-size-adjust="none"
         font-stretch="normal"
         font-weight="normal"
         font-variant="normal"
         font-style="normal"
         stroke-miterlimit="10.433"
         xml:space="preserve"
         id="g6290"
         style="font-style:normal;font-variant:normal;font-weight:normal;font-stretch:normal;letter-spacing:normal;word-spacing:normal;text-anchor:start;fill:none;fill-opacity:1;fill-rule:evenodd;stroke:#000000;stroke-linecap:butt;stroke-linejoin:miter;stroke-miterlimit:10.4329996109;stroke-dasharray:none;stroke-dashoffset:0;stroke-opacity:1"><path
           id="path6292"
           style="fill:#000000;stroke-width:0"
           d="m 226.36,483.59 0,0.01 0,0.01 0,0.02 0,0.01 0,0 0,0.01 0,0.01 0,0.01 0,0.01 0,0.01 0,0.01 0,0.01 0,0 -0.01,0.01 0,0.01 0,0 0,0.01 0,0.01 0,0.01 0,0.01 -0.01,0.01 0,0.01 0,0.01 -0.01,0 0,0.01 -0.01,0.01 0,0 -0.01,0.01 -0.01,0 -0.01,0.01 0,0 -0.01,0 0,0 -0.01,0 0,0 -0.01,0 -0.01,0.01 0,0 -0.01,0 -0.01,0 0,0 -0.01,0 -0.01,0 -0.01,0 0,0 -0.01,0 -0.01,0 -0.01,0 -0.01,0 -0.01,0 -0.01,0 -0.01,0 c -0.62,-0.64 -1.49,-0.64 -1.81,-0.64 l 0,-0.3 c 0.2,0 0.78,0 1.3,0.26 l 0,-5.15 c 0,-0.36 -0.03,-0.48 -0.92,-0.48 l -0.32,0 0,-0.31 c 0.35,0.04 1.21,0.04 1.61,0.04 0.4,0 1.26,0 1.61,-0.04 l 0,0.31 -0.32,0 c -0.89,0 -0.92,0.11 -0.92,0.48 z"
           inkscape:connector-curvature="0" /></g>      <path
         id="path6294"
         inkscape:label="arc"
         sodipodi:type="arc"
         sodipodi:start="6.23631030718"
         sodipodi:ry="60"
         sodipodi:rx="60"
         sodipodi:open="true"
         sodipodi:end="0.046875"
         sodipodi:cy="0"
         sodipodi:cx="0"
         style="fill:none;stroke:#4c4c4c;stroke-width:1.2857142687;stroke-linecap:round;stroke-linejoin:round;stroke-dasharray:none"
         d="m 59.93409410031,-2.811470144863 a 60,60 0 0 1 0,5.622940289751" />
      <g
         transform="matrix(1.331361,0,0,-1.331361,-240.77442,653.272215)"
         ns0:preamble="/home/fernando/.config/inkscape/extensions/textextLib/basicLatexPackages.tex"
         ns0:text=" $2$"
         word-spacing="normal"
         letter-spacing="normal"
         font-size-adjust="none"
         font-stretch="normal"
         font-weight="normal"
         font-variant="normal"
         font-style="normal"
         stroke-miterlimit="10.433"
         xml:space="preserve"
         id="g6296"
         style="font-style:normal;font-variant:normal;font-weight:normal;font-stretch:normal;letter-spacing:normal;word-spacing:normal;text-anchor:start;fill:none;fill-opacity:1;fill-rule:evenodd;stroke:#000000;stroke-linecap:butt;stroke-linejoin:miter;stroke-miterlimit:10.4329996109;stroke-dasharray:none;stroke-dashoffset:0;stroke-opacity:1"><path
           id="path6298"
           style="fill:#000000;stroke-width:0"
           d="m 224.7,478 1.05,1.02 c 1.55,1.37 2.15,1.91 2.15,2.9 0,1.14 -0.9,1.93 -2.11,1.93 -1.12,0 -1.86,-0.91 -1.86,-1.8 0,-0.55 0.5,-0.55 0.53,-0.55 0.17,0 0.51,0.12 0.51,0.52 0,0.26 -0.18,0.52 -0.52,0.52 -0.08,0 -0.1,0 -0.13,-0.01 0.23,0.64 0.76,1.01 1.34,1.01 0.91,0 1.33,-0.8 1.33,-1.62 0,-0.79 -0.49,-1.58 -1.04,-2.19 l -1.91,-2.13 c -0.11,-0.11 -0.11,-0.13 -0.11,-0.37 l 3.69,0 0.28,1.73 -0.25,0 c -0.05,-0.29 -0.12,-0.73 -0.22,-0.88 C 227.36,478 226.71,478 226.49,478 Z"
           inkscape:connector-curvature="0" /></g>      <path
         id="path6300"
         inkscape:label="none"
         style="fill:none;stroke:#4c4c4c;stroke-width:1.2857142687;stroke-linecap:round;stroke-linejoin:round;stroke-dasharray:none"
         d="m 57.1875,0 5.625,0"
         inkscape:connector-curvature="0" />
      <g
         transform="matrix(1.331361,0,0,-1.331361,-226.735219,639.632422)"
         ns0:preamble="/home/fernando/.config/inkscape/extensions/textextLib/basicLatexPackages.tex"
         ns0:text=" $0.0$"
         word-spacing="normal"
         letter-spacing="normal"
         font-size-adjust="none"
         font-stretch="normal"
         font-weight="normal"
         font-variant="normal"
         font-style="normal"
         stroke-miterlimit="10.433"
         xml:space="preserve"
         id="g6302"
         style="font-style:normal;font-variant:normal;font-weight:normal;font-stretch:normal;letter-spacing:normal;word-spacing:normal;text-anchor:start;fill:none;fill-opacity:1;fill-rule:evenodd;stroke:#000000;stroke-linecap:butt;stroke-linejoin:miter;stroke-miterlimit:10.4329996109;stroke-dasharray:none;stroke-dashoffset:0;stroke-opacity:1"><path
           id="path6304"
           style="fill:#000000;stroke-width:0"
           d="m 228.01,480.41 0,0.15 0,0.15 -0.01,0.15 0,0.15 -0.01,0.15 -0.02,0.14 -0.01,0.15 -0.02,0.15 -0.02,0.14 -0.03,0.15 -0.03,0.14 -0.04,0.15 -0.04,0.14 -0.05,0.14 -0.06,0.14 -0.03,0.07 -0.03,0.07 c -0.46,0.95 -1.27,1.11 -1.69,1.11 -0.6,0 -1.32,-0.26 -1.73,-1.18 -0.32,-0.69 -0.37,-1.46 -0.37,-2.26 0,-0.74 0.04,-1.64 0.45,-2.39 0.43,-0.81 1.15,-1 1.64,-1 l 0,0.21 c -0.39,0 -0.98,0.25 -1.15,1.21 -0.11,0.59 -0.11,1.51 -0.11,2.09 0,0.64 0,1.29 0.08,1.83 0.18,1.18 0.93,1.27 1.18,1.27 0.33,0 0.98,-0.18 1.17,-1.16 0.1,-0.56 0.1,-1.31 0.1,-1.94 0,-0.74 0,-1.42 -0.11,-2.05 -0.15,-0.95 -0.71,-1.25 -1.16,-1.25 l 0,0 0,-0.21 c 0.54,0 1.29,0.21 1.73,1.15 0.32,0.68 0.37,1.46 0.37,2.24 z"
           inkscape:connector-curvature="0" /><path
           id="path6306"
           style="fill:#000000;stroke-width:0"
           d="m 230.32,477.76 0,0.03 0,0.03 0,0.02 -0.01,0.03 0,0.02 -0.01,0.03 -0.01,0.02 -0.01,0.03 -0.01,0.02 -0.01,0.02 -0.01,0.02 -0.02,0.02 -0.01,0.03 -0.02,0.02 -0.01,0.01 -0.02,0.02 -0.02,0.02 -0.02,0.02 -0.02,0.01 -0.02,0.02 -0.02,0.01 -0.02,0.01 -0.03,0.02 -0.02,0.01 -0.02,0.01 -0.03,0 -0.02,0.01 -0.03,0.01 -0.02,0 -0.03,0.01 -0.03,0 -0.02,0 c -0.29,0 -0.53,-0.24 -0.53,-0.53 0,-0.29 0.24,-0.53 0.53,-0.53 0.28,0 0.52,0.24 0.52,0.53 z"
           inkscape:connector-curvature="0" /><path
           id="path6308"
           style="fill:#000000;stroke-width:0"
           d="m 235.76,480.41 0,0.15 0,0.15 -0.01,0.15 -0.01,0.15 0,0.15 -0.02,0.14 -0.01,0.15 -0.02,0.15 -0.02,0.14 -0.03,0.15 -0.03,0.14 -0.04,0.15 -0.04,0.14 -0.05,0.14 -0.06,0.14 -0.03,0.07 -0.03,0.07 c -0.46,0.95 -1.27,1.11 -1.69,1.11 -0.6,0 -1.32,-0.26 -1.73,-1.18 -0.32,-0.69 -0.37,-1.46 -0.37,-2.26 0,-0.74 0.04,-1.64 0.45,-2.39 0.43,-0.81 1.15,-1 1.64,-1 l 0,0.21 c -0.39,0 -0.98,0.25 -1.16,1.21 -0.1,0.59 -0.1,1.51 -0.1,2.09 0,0.64 0,1.29 0.07,1.83 0.19,1.18 0.94,1.27 1.19,1.27 0.33,0 0.98,-0.18 1.17,-1.16 0.1,-0.56 0.1,-1.31 0.1,-1.94 0,-0.74 0,-1.42 -0.11,-2.05 -0.15,-0.95 -0.71,-1.25 -1.16,-1.25 l 0,0 0,-0.21 c 0.54,0 1.29,0.21 1.73,1.15 0.32,0.68 0.37,1.46 0.37,2.24 z"
           inkscape:connector-curvature="0" /></g>      <path
         id="path6310"
         inkscape:label="none"
         style="fill:none;stroke:#b2b2b2;stroke-width:0.8999999762;stroke-linecap:round;stroke-linejoin:round;stroke-dasharray:none"
         d="M 10.6066017178,-10.6066017178 42.4264068712,-42.4264068712"
         inkscape:connector-curvature="0" />
      <path
         id="path6312"
         inkscape:label="none"
         style="fill:none;stroke:#4c4c4c;stroke-width:1.2857142687;stroke-linecap:round;stroke-linejoin:round;stroke-dasharray:none"
         d="m 40.4376690491,-40.4376690491 3.97747564417,-3.97747564417"
         inkscape:connector-curvature="0" />
      <g
         transform="matrix(1.331361,0,0,-1.331361,-247.457411,589.324289)"
         ns0:preamble="/home/fernando/.config/inkscape/extensions/textextLib/basicLatexPackages.tex"
         ns0:text=" $45.0$"
         word-spacing="normal"
         letter-spacing="normal"
         font-size-adjust="none"
         font-stretch="normal"
         font-weight="normal"
         font-variant="normal"
         font-style="normal"
         stroke-miterlimit="10.433"
         xml:space="preserve"
         id="g6314"
         style="font-style:normal;font-variant:normal;font-weight:normal;font-stretch:normal;letter-spacing:normal;word-spacing:normal;text-anchor:start;fill:none;fill-opacity:1;fill-rule:evenodd;stroke:#000000;stroke-linecap:butt;stroke-linejoin:miter;stroke-miterlimit:10.4329996109;stroke-dasharray:none;stroke-dashoffset:0;stroke-opacity:1"><path
           id="path6316"
           style="fill:#000000;stroke-width:0"
           d="m 226.36,478.87 0,-0.86 c 0,-0.36 -0.02,-0.47 -0.76,-0.47 l -0.21,0 0,-0.31 c 0.41,0.04 0.93,0.04 1.35,0.04 0.41,0 0.94,0 1.35,-0.04 l 0,0.31 -0.21,0 c -0.74,0 -0.76,0.11 -0.76,0.47 l 0,0.86 1,0 0,0.31 -1,0 0,4.52 c 0,0.2 0,0.26 -0.16,0.26 -0.09,0 -0.11,0 -0.2,-0.12 l -3.05,-4.66 0.28,0 2.43,3.71 0,-3.71 -2.43,0 -0.28,0 0,-0.31 z"
           inkscape:connector-curvature="0" /><path
           id="path6318"
           style="fill:#000000;stroke-width:0"
           d="m 232.88,479.23 0,0.11 -0.01,0.11 -0.01,0.11 -0.02,0.1 -0.02,0.11 -0.02,0.1 -0.03,0.1 -0.03,0.1 -0.04,0.1 -0.04,0.09 -0.05,0.09 -0.04,0.09 -0.06,0.09 -0.05,0.08 -0.06,0.08 -0.06,0.07 -0.07,0.08 -0.06,0.06 -0.08,0.07 -0.07,0.06 -0.08,0.06 -0.08,0.05 -0.08,0.05 -0.08,0.04 -0.09,0.04 -0.09,0.04 -0.09,0.03 -0.09,0.02 -0.09,0.02 -0.1,0.02 -0.1,0 -0.1,0.01 c -0.48,0 -0.9,-0.16 -1.26,-0.51 l 0,1.94 c 0.2,-0.06 0.52,-0.13 0.84,-0.13 1.23,0 1.92,0.9 1.92,1.03 0,0.06 -0.03,0.11 -0.1,0.11 -0.01,0 -0.03,0 -0.08,-0.03 -0.2,-0.09 -0.68,-0.29 -1.35,-0.29 -0.4,0 -0.86,0.07 -1.32,0.28 -0.08,0.03 -0.1,0.03 -0.12,0.03 -0.1,0 -0.1,-0.08 -0.1,-0.24 l 0,-2.94 c 0,-0.18 0,-0.26 0.14,-0.26 0.07,0 0.09,0.03 0.13,0.09 0.11,0.16 0.47,0.7 1.28,0.7 0.52,0 0.77,-0.46 0.85,-0.64 0.16,-0.37 0.17,-0.75 0.17,-1.25 0,-0.35 0,-0.94 -0.23,-1.36 -0.24,-0.39 -0.61,-0.64 -1.07,-0.64 -0.73,0 -1.29,0.52 -1.46,1.11 0.03,-0.01 0.06,-0.02 0.17,-0.02 0.33,0 0.5,0.25 0.5,0.48 0,0.24 -0.17,0.49 -0.5,0.49 -0.14,0 -0.49,-0.07 -0.49,-0.53 0,-0.85 0.69,-1.81 1.8,-1.81 1.16,0 2.17,0.95 2.17,2.21 z"
           inkscape:connector-curvature="0" /><path
           id="path6320"
           style="fill:#000000;stroke-width:0"
           d="m 235.3,477.76 0,0.03 0,0.03 0,0.02 -0.01,0.03 0,0.02 -0.01,0.03 -0.01,0.02 -0.01,0.03 -0.01,0.02 -0.01,0.02 -0.01,0.02 -0.02,0.02 -0.01,0.03 -0.02,0.02 -0.01,0.01 -0.02,0.02 -0.02,0.02 -0.02,0.02 -0.02,0.01 -0.02,0.02 -0.02,0.01 -0.02,0.01 -0.02,0.02 -0.03,0.01 -0.02,0.01 -0.03,0 -0.02,0.01 -0.03,0.01 -0.02,0 -0.03,0.01 -0.03,0 -0.02,0 c -0.29,0 -0.53,-0.24 -0.53,-0.53 0,-0.29 0.24,-0.53 0.53,-0.53 0.29,0 0.52,0.24 0.52,0.53 z"
           inkscape:connector-curvature="0" /><path
           id="path6322"
           style="fill:#000000;stroke-width:0"
           d="m 240.74,480.41 0,0.15 0,0.15 -0.01,0.15 0,0.15 -0.01,0.15 -0.02,0.14 -0.01,0.15 -0.02,0.15 -0.02,0.14 -0.03,0.15 -0.03,0.14 -0.04,0.15 -0.04,0.14 -0.05,0.14 -0.06,0.14 -0.03,0.07 -0.03,0.07 c -0.46,0.95 -1.27,1.11 -1.69,1.11 -0.6,0 -1.32,-0.26 -1.73,-1.18 -0.32,-0.69 -0.37,-1.46 -0.37,-2.26 0,-0.74 0.04,-1.64 0.45,-2.39 0.43,-0.81 1.15,-1 1.64,-1 l 0,0.21 c -0.39,0 -0.98,0.25 -1.15,1.21 -0.11,0.59 -0.11,1.51 -0.11,2.09 0,0.64 0,1.29 0.08,1.83 0.18,1.18 0.93,1.27 1.18,1.27 0.33,0 0.98,-0.18 1.17,-1.16 0.1,-0.56 0.1,-1.31 0.1,-1.94 0,-0.74 0,-1.42 -0.11,-2.05 -0.15,-0.95 -0.71,-1.25 -1.16,-1.25 l 0,0 0,-0.21 c 0.54,0 1.29,0.21 1.73,1.15 0.32,0.68 0.37,1.46 0.37,2.24 z"
           inkscape:connector-curvature="0" /></g>      <path
         id="path6324"
         inkscape:label="none"
         style="fill:none;stroke:#4c4c4c;stroke-width:1.2857142687;stroke-linecap:round;stroke-linejoin:round;stroke-dasharray:none"
         d="m 0,-57.1875 0,-5.625"
         inkscape:connector-curvature="0" />
      <g
         transform="matrix(1.331361,0,0,-1.331361,-309.268503,568.382422)"
         ns0:preamble="/home/fernando/.config/inkscape/extensions/textextLib/basicLatexPackages.tex"
         ns0:text=" $90.0$"
         word-spacing="normal"
         letter-spacing="normal"
         font-size-adjust="none"
         font-stretch="normal"
         font-weight="normal"
         font-variant="normal"
         font-style="normal"
         stroke-miterlimit="10.433"
         xml:space="preserve"
         id="g6326"
         style="font-style:normal;font-variant:normal;font-weight:normal;font-stretch:normal;letter-spacing:normal;word-spacing:normal;text-anchor:start;fill:none;fill-opacity:1;fill-rule:evenodd;stroke:#000000;stroke-linecap:butt;stroke-linejoin:miter;stroke-miterlimit:10.4329996109;stroke-dasharray:none;stroke-dashoffset:0;stroke-opacity:1"><path
           id="path6328"
           style="fill:#000000;stroke-width:0"
           d="m 227.08,480.39 0,-0.31 c 0,-2.33 -1.03,-2.78 -1.61,-2.78 -0.17,0 -0.71,0.01 -0.97,0.35 0.43,0 0.51,0.29 0.51,0.46 0,0.31 -0.24,0.46 -0.45,0.46 -0.16,0 -0.46,-0.09 -0.46,-0.48 0,-0.67 0.54,-1.07 1.38,-1.07 1.28,0 2.5,1.35 2.5,3.48 0,2.67 -1.14,3.35 -2.03,3.35 -0.55,0 -1.04,-0.18 -1.46,-0.62 -0.41,-0.45 -0.64,-0.87 -0.64,-1.61 0,-1.25 0.88,-2.22 1.99,-2.22 l 0.01,0.23 c -0.16,0 -0.62,0 -0.93,0.63 -0.18,0.36 -0.18,0.86 -0.18,1.35 0,0.53 0,1 0.21,1.37 0.27,0.49 0.65,0.62 1,0.62 0.46,0 0.79,-0.33 0.95,-0.78 0.12,-0.32 0.16,-0.95 0.16,-1.4 0,-0.83 -0.33,-1.79 -1.21,-1.79 l 0,0 -0.01,-0.23 c 0.61,0 1.01,0.42 1.24,0.99 z"
           inkscape:connector-curvature="0" /><path
           id="path6330"
           style="fill:#000000;stroke-width:0"
           d="m 232.99,480.41 0,0.15 0,0.15 -0.01,0.15 0,0.15 -0.01,0.15 -0.01,0.14 -0.02,0.15 -0.02,0.15 -0.02,0.14 -0.03,0.15 -0.03,0.14 -0.04,0.15 -0.04,0.14 -0.05,0.14 -0.06,0.14 -0.03,0.07 -0.03,0.07 c -0.46,0.95 -1.27,1.11 -1.69,1.11 -0.6,0 -1.32,-0.26 -1.73,-1.18 -0.32,-0.69 -0.37,-1.46 -0.37,-2.26 0,-0.74 0.04,-1.64 0.45,-2.39 0.43,-0.81 1.15,-1 1.64,-1 l 0,0.21 c -0.39,0 -0.97,0.25 -1.15,1.21 -0.11,0.59 -0.11,1.51 -0.11,2.09 0,0.64 0,1.29 0.08,1.83 0.19,1.18 0.93,1.27 1.18,1.27 0.33,0 0.99,-0.18 1.18,-1.16 0.09,-0.56 0.09,-1.31 0.09,-1.94 0,-0.74 0,-1.42 -0.11,-2.05 -0.15,-0.95 -0.71,-1.25 -1.16,-1.25 l 0,0 0,-0.21 c 0.54,0 1.29,0.21 1.73,1.15 0.32,0.68 0.37,1.46 0.37,2.24 z"
           inkscape:connector-curvature="0" /><path
           id="path6332"
           style="fill:#000000;stroke-width:0"
           d="m 235.3,477.76 0,0.03 0,0.03 0,0.02 -0.01,0.03 0,0.02 -0.01,0.03 -0.01,0.02 -0.01,0.03 -0.01,0.02 -0.01,0.02 -0.01,0.02 -0.02,0.02 -0.01,0.03 -0.02,0.02 -0.01,0.01 -0.02,0.02 -0.02,0.02 -0.02,0.02 -0.02,0.01 -0.02,0.02 -0.02,0.01 -0.02,0.01 -0.02,0.02 -0.03,0.01 -0.02,0.01 -0.03,0 -0.02,0.01 -0.03,0.01 -0.02,0 -0.03,0.01 -0.03,0 -0.02,0 c -0.29,0 -0.53,-0.24 -0.53,-0.53 0,-0.29 0.24,-0.53 0.53,-0.53 0.29,0 0.52,0.24 0.52,0.53 z"
           inkscape:connector-curvature="0" /><path
           id="path6334"
           style="fill:#000000;stroke-width:0"
           d="m 240.74,480.41 0,0.15 0,0.15 -0.01,0.15 0,0.15 -0.01,0.15 -0.02,0.14 -0.01,0.15 -0.02,0.15 -0.02,0.14 -0.03,0.15 -0.03,0.14 -0.04,0.15 -0.04,0.14 -0.05,0.14 -0.06,0.14 -0.03,0.07 -0.03,0.07 c -0.46,0.95 -1.27,1.11 -1.69,1.11 -0.6,0 -1.32,-0.26 -1.73,-1.18 -0.32,-0.69 -0.37,-1.46 -0.37,-2.26 0,-0.74 0.04,-1.64 0.45,-2.39 0.43,-0.81 1.15,-1 1.64,-1 l 0,0.21 c -0.39,0 -0.98,0.25 -1.15,1.21 -0.11,0.59 -0.11,1.51 -0.11,2.09 0,0.64 0,1.29 0.08,1.83 0.18,1.18 0.93,1.27 1.18,1.27 0.33,0 0.98,-0.18 1.17,-1.16 0.1,-0.56 0.1,-1.31 0.1,-1.94 0,-0.74 0,-1.42 -0.11,-2.05 -0.15,-0.95 -0.71,-1.25 -1.16,-1.25 l 0,0 0,-0.21 c 0.54,0 1.29,0.21 1.73,1.15 0.32,0.68 0.37,1.46 0.37,2.24 z"
           inkscape:connector-curvature="0" /></g>    </g>
    <g
       id="g6336"
       inkscape:label="Axis">
      <path
         id="path6338"
         inkscape:label="none"
         style="fill:none;stroke:#4c4c4c;stroke-width:1.2857142687;stroke-linecap:round;stroke-linejoin:round;stroke-dasharray:none"
         d="M 0,0 60,0"
         inkscape:connector-curvature="0" />
      <path
         id="path6340"
         inkscape:label="none"
         style="fill:none;stroke:#4c4c4c;stroke-width:1.2857142687;stroke-linecap:round;stroke-linejoin:round;stroke-dasharray:none"
         d="M 0,-60 0,0"
         inkscape:connector-curvature="0" />
      <path
         id="path6342"
         inkscape:label="arc"
         sodipodi:type="arc"
         sodipodi:start="4.71238898039"
         sodipodi:ry="60"
         sodipodi:rx="60"
         sodipodi:open="true"
         sodipodi:end="0"
         sodipodi:cy="7.105427357601e-15"
         sodipodi:cx="-3.552713678801e-15"
         style="fill:none;stroke:#4c4c4c;stroke-width:1.2857142687;stroke-linecap:round;stroke-linejoin:round;stroke-dasharray:none"
         d="M 0,-60 A 60,60 0 0 1 60,0" />
      <g
         transform="matrix(1.664201,0,0,-1.664201,-291.460704,815.060137)"
         ns0:preamble="/home/fernando/.config/inkscape/extensions/textextLib/basicLatexPackages.tex"
         ns0:text=" $R$"
         word-spacing="normal"
         letter-spacing="normal"
         font-size-adjust="none"
         font-stretch="normal"
         font-weight="normal"
         font-variant="normal"
         font-style="normal"
         stroke-miterlimit="10.433"
         xml:space="preserve"
         id="g6344"
         style="font-style:normal;font-variant:normal;font-weight:normal;font-stretch:normal;letter-spacing:normal;word-spacing:normal;text-anchor:start;fill:none;fill-opacity:1;fill-rule:evenodd;stroke:#000000;stroke-linecap:butt;stroke-linejoin:miter;stroke-miterlimit:10.4329996109;stroke-dasharray:none;stroke-dashoffset:0;stroke-opacity:1"><path
           id="path6346"
           style="fill:#000000;stroke-width:0"
           d="m 228.6,480.61 0.09,0.02 0.1,0.03 0.09,0.03 0.1,0.03 0.09,0.03 0.1,0.03 0.1,0.04 0.09,0.04 0.1,0.05 0.09,0.04 0.09,0.05 0.09,0.05 0.09,0.05 0.08,0.06 0.09,0.06 0.08,0.06 0.07,0.06 0.08,0.06 0.07,0.07 0.07,0.07 0.06,0.07 0.06,0.07 0.05,0.08 0.05,0.08 0.05,0.08 0.04,0.08 0.03,0.08 0.03,0.09 0.02,0.09 0.02,0.09 0.01,0.09 0,0.09 c 0,0.85 -0.89,1.49 -2.19,1.49 l -2.84,0 c -0.2,0 -0.29,0 -0.29,-0.2 0,-0.11 0.09,-0.11 0.28,-0.11 0.02,0 0.21,0 0.38,-0.02 0.18,-0.02 0.27,-0.03 0.27,-0.16 0,-0.04 -0.01,-0.07 -0.04,-0.19 l -1.34,-5.33 c -0.1,-0.39 -0.11,-0.47 -0.9,-0.47 -0.18,0 -0.27,0 -0.27,-0.2 0,-0.11 0.12,-0.11 0.14,-0.11 0.28,0 0.97,0.04 1.25,0.04 0.28,0 0.99,-0.04 1.27,-0.04 0.08,0 0.2,0 0.2,0.2 0,0.11 -0.09,0.11 -0.28,0.11 -0.37,0 -0.65,0 -0.65,0.18 0,0.06 0.02,0.11 0.03,0.17 l 0.66,2.63 1.18,0 -0.01,0.22 -1.11,0 0.64,2.59 c 0.06,0.24 0.09,0.34 0.28,0.37 0.09,0.01 0.41,0.01 0.61,0.01 0.71,0 1.81,0 1.81,-0.98 0,-0.34 -0.16,-1.03 -0.55,-1.41 -0.26,-0.26 -0.78,-0.58 -1.68,-0.58 l 0.01,-0.22 c 0.91,0 1.09,-0.55 1.09,-0.9 0,-0.15 -0.08,-0.46 -0.14,-0.69 -0.07,-0.27 -0.16,-0.64 -0.16,-0.84 0,-1.07 1.19,-1.07 1.32,-1.07 0.85,0 1.19,1 1.19,1.14 0,0.12 -0.11,0.12 -0.12,0.12 -0.08,0 -0.11,-0.07 -0.12,-0.14 -0.25,-0.74 -0.68,-0.91 -0.91,-0.91 -0.33,0 -0.4,0.22 -0.4,0.61 0,0.31 0.06,0.82 0.1,1.13 0.02,0.14 0.04,0.33 0.04,0.47 0,0.76 -0.67,1.07 -0.93,1.17 z"
           inkscape:connector-curvature="0" /></g>    </g>
  </g>
  <text
     xml:space="preserve"
     style="font-style:normal;font-variant:normal;font-weight:normal;font-stretch:normal;font-size:6.25px;line-height:100%;font-family:Verdana;-inkscape-font-specification:Verdana;text-align:end;letter-spacing:0px;word-spacing:0px;writing-mode:lr-tb;text-anchor:end;fill:#000000;fill-opacity:1;stroke:none;stroke-width:1px;stroke-linecap:butt;stroke-linejoin:miter;stroke-opacity:1"
     x="-40.068138"
     y="537.36218"
     id="text18125"
     sodipodi:linespacing="100%"
     inkscape:export-xdpi="257.5848693848"
     inkscape:export-ydpi="257.5848693848"><tspan
       sodipodi:role="line"
       id="tspan18127"
       x="-40.068138"
       y="537.36218">General aspect=0.5</tspan></text>
  <text
     xml:space="preserve"
     style="font-style:normal;font-variant:normal;font-weight:normal;font-stretch:normal;font-size:6.25px;line-height:100%;font-family:Verdana;-inkscape-font-specification:Verdana;text-align:end;letter-spacing:0px;word-spacing:0px;writing-mode:lr-tb;text-anchor:end;fill:#000000;fill-opacity:1;stroke:none;stroke-width:1px;stroke-linecap:butt;stroke-linejoin:miter;stroke-opacity:1"
     x="73.535324"
     y="537.36218"
     id="text18125-1"
     sodipodi:linespacing="100%"
     inkscape:export-xdpi="257.5848693848"
     inkscape:export-ydpi="257.5848693848"><tspan
       sodipodi:role="line"
       id="tspan18127-4"
       x="73.535324"
       y="537.36218">General aspect=1.0</tspan></text>
  <text
     xml:space="preserve"
     style="font-style:normal;font-variant:normal;font-weight:normal;font-stretch:normal;font-size:6.25px;line-height:100%;font-family:Verdana;-inkscape-font-specification:Verdana;text-align:end;letter-spacing:0px;word-spacing:0px;writing-mode:lr-tb;text-anchor:end;fill:#000000;fill-opacity:1;stroke:none;stroke-width:1px;stroke-linecap:butt;stroke-linejoin:miter;stroke-opacity:1"
     x="196.96561"
     y="537.36218"
     id="text18125-9"
     sodipodi:linespacing="100%"
     inkscape:export-xdpi="257.5848693848"
     inkscape:export-ydpi="257.5848693848"><tspan
       sodipodi:role="line"
       id="tspan18127-2"
       x="196.96561"
       y="537.36218">General aspect=1.5</tspan></text>
</svg>
